<?xml version="1.0" encoding="UTF-8" standalone="no"?>
<!-- Created with Inkscape (http://www.inkscape.org/) -->

<svg
   xmlns:dc="http://purl.org/dc/elements/1.1/"
   xmlns:cc="http://creativecommons.org/ns#"
   xmlns:rdf="http://www.w3.org/1999/02/22-rdf-syntax-ns#"
   xmlns:svg="http://www.w3.org/2000/svg"
   xmlns="http://www.w3.org/2000/svg"
   version="1.0"
   width="140"
   height="100"
   viewBox="0 0 0.73684211 0.73529411"
   id="body">
  <title
     id="title3316">SVG drawing</title>
  <desc
     id="desc3318">This was produced by version 4.2 of GNU libplot, a free library for exporting 2-D vector graphics.</desc>
  <metadata
     id="metadata3047">
    <rdf:RDF>
      <cc:Work
         rdf:about="">
        <dc:format>image/svg+xml</dc:format>
        <dc:type
           rdf:resource="http://purl.org/dc/dcmitype/StillImage" />
        <dc:title>SVG drawing</dc:title>
      </cc:Work>
    </rdf:RDF>
  </metadata>
  <defs
     id="defs3415" />
  <g
     transform="matrix(3.9338413,0,0,3.9338317,1.2695253,-1.1932829)"
     id="g3512">
    <path
       d="m -0.35936512,0.41387702 6.771e-5,-0.001354 2.0139e-4,-0.001337 3.2986e-4,-0.001319 4.5659e-4,-0.001285 5.7986e-4,-0.001285 7.0138e-4,-0.00125 8.1597e-4,-0.001215 9.3055e-4,-0.001198 0.00104,-0.001163 0.001148,-0.001128 0.001252,-0.001111 0.001351,-0.001059 0.00145,-0.001042 0.001542,-9.8958e-4 0.001634,-9.5485e-4 0.00172,-9.2014e-4 0.001804,-8.6805e-4 0.001885,-8.3333e-4 0.001964,-7.8124e-4 0.002036,-7.2916e-4 0.002109,-6.7708e-4 0.002175,-6.4236e-4 0.002241,-5.7291e-4 0.0023,-5.3819e-4 0.002361,-4.6875e-4 0.002413,-4.1666e-4 0.002467,-3.4722e-4 0.002514,-2.9514e-4 0.002559,-2.2569e-4 0.002601,-1.7361e-4 0.002639,-1.0417e-4 0.002674,-3.472e-5 c 0.0287481,0 0.0520014,0.0117881 0.0520014,0.0263193 0,0.0145832 -0.0232603,0.0263193 -0.0520014,0.0263193 -0.0286995,0 -0.0519615,-0.0117361 -0.0519615,-0.0263193 z"
       id="path3324"
       style="font-style:normal;font-variant:normal;font-weight:normal;font-stretch:normal;letter-spacing:normal;word-spacing:normal;text-anchor:start;fill:#2cd324;fill-opacity:1;fill-rule:nonzero;stroke:#2cd324;stroke-width:0;stroke-linecap:butt;stroke-linejoin:miter;stroke-miterlimit:10.43299961;stroke-opacity:1;stroke-dasharray:none;stroke-dashoffset:0" />
    <path
       d="m -0.26329629,0.46260584 7.118e-5,-0.001422 2.1181e-4,-0.001405 3.4722e-4,-0.001384 4.7916e-4,-0.001361 6.0937e-4,-0.001337 7.3611e-4,-0.001313 8.5937e-4,-0.001285 9.7742e-4,-0.001255 0.001094,-0.001233 0.001207,-0.001181 0.001314,-0.001163 0.00142,-0.001128 0.001523,-0.001076 0.001622,-0.001042 0.001717,-0.001007 0.001807,-9.549e-4 0.001896,-9.201e-4 0.001983,-8.681e-4 0.002062,-8.159e-4 0.002141,-7.813e-4 0.002217,-7.1177e-4 0.002286,-6.7708e-4 0.002354,-6.0764e-4 0.002418,-5.5555e-4 0.002483,-4.861e-4 0.002535,-4.3403e-4 0.002587,-3.8194e-4 0.002656,-2.9514e-4 0.002691,-2.4305e-4 0.002726,-1.9097e-4 0.002778,-1.0417e-4 0.002812,-3.472e-5 c 0.030156,0 0.0546524,0.0123784 0.0546524,0.0276526 0,0.0152586 -0.0244964,0.0276492 -0.0546524,0.0276492 -0.0301717,0 -0.0546194,-0.0123836 -0.0546194,-0.0276492 z"
       id="path3326"
       style="font-style:normal;font-variant:normal;font-weight:normal;font-stretch:normal;letter-spacing:normal;word-spacing:normal;text-anchor:start;fill:#f8fa1a;fill-opacity:1;fill-rule:nonzero;stroke:#f8fa1a;stroke-width:0;stroke-linecap:butt;stroke-linejoin:miter;stroke-miterlimit:10.43299961;stroke-opacity:1;stroke-dasharray:none;stroke-dashoffset:0" />
    <path
       d="m -0.24089539,0.4020021 0.002451,-1.5625e-4 0.002418,-2.7777e-4 0.00238,-3.8195e-4 0.002342,-5.0347e-4 0.002297,-6.0763e-4 0.002257,-7.118e-4 0.002205,-8.3333e-4 0.002153,-9.2013e-4 0.002101,-0.001024 0.002049,-0.001111 0.001979,-0.001215 0.001927,-0.001285 0.001858,-0.001389 0.001788,-0.001476 0.001719,-0.001545 0.001632,-0.001615 0.00158,-0.001701 0.001476,-0.001788 0.001406,-0.00184 0.001319,-0.00191 0.001233,-0.001962 0.001128,-0.002031 0.001042,-0.002101 9.375e-4,-0.002135 8.5068e-4,-0.002205 7.4653e-4,-0.00224 6.2499e-4,-0.002292 5.3819e-4,-0.002344 4.1667e-4,-0.002378 2.9514e-4,-0.002413 1.7361e-4,-0.002448 6.944e-5,-0.002465 c 0,-0.0272394 -0.0221179,-0.0493573 -0.0493591,-0.0493573 -0.0270588,0 -0.0490379,0.021736 -0.0493573,0.0487497 6.3715e-4,-3.472e-5 0.001274,-3.472e-5 0.00196,-3.472e-5 0.0272342,0 0.0493573,0.0220658 0.0493573,0.0493573 l 0,5.9027e-4"
       id="path3328"
       style="font-style:normal;font-variant:normal;font-weight:normal;font-stretch:normal;letter-spacing:normal;word-spacing:normal;text-anchor:start;fill:#0a12ff;fill-opacity:1;fill-rule:nonzero;stroke:#0a12ff;stroke-width:0;stroke-linecap:butt;stroke-linejoin:miter;stroke-miterlimit:10.43299961;stroke-opacity:1;stroke-dasharray:none;stroke-dashoffset:0" />
    <path
       d="m -0.14487517,0.45076914 0.002396,-1.562e-4 0.002344,-2.605e-4 0.002326,-3.819e-4 0.002274,-4.861e-4 0.00224,-6.076e-4 0.002187,-6.945e-4 0.002153,-7.986e-4 0.002101,-9.028e-4 0.002049,-9.895e-4 0.001979,-0.001094 0.001944,-0.00118 0.001858,-0.00125 0.001806,-0.001354 0.001736,-0.001424 0.001684,-0.00151 0.001597,-0.00158 0.00151,-0.001667 0.001458,-0.001719 0.001354,-0.001806 0.001285,-0.001858 0.001198,-0.00191 0.001094,-0.001979 0.001024,-0.002049 9.2013e-4,-0.002083 8.1597e-4,-0.002135 7.118e-4,-0.002187 6.2499e-4,-0.00224 5.0347e-4,-0.002274 4.1667e-4,-0.002309 2.7777e-4,-0.002361 1.7361e-4,-0.002378 6.945e-5,-0.002413 c 0,-0.026545 -0.02147556,-0.0480726 -0.04803789,-0.0480726 -0.0263193,0 -0.047708,0.0211978 -0.0480205,0.0474823 6.25e-4,-3.472e-5 0.001267,-3.472e-5 0.00191,-3.472e-5 0.0264929,0 0.0480379,0.0215276 0.0480379,0.0480726 l 0,5.903e-4"
       id="path3330"
       style="font-style:normal;font-variant:normal;font-weight:normal;font-stretch:normal;letter-spacing:normal;word-spacing:normal;text-anchor:start;fill:#fb0f19;fill-opacity:1;fill-rule:nonzero;stroke:#fb0f19;stroke-width:0;stroke-linecap:butt;stroke-linejoin:miter;stroke-miterlimit:10.43299961;stroke-opacity:1;stroke-dasharray:none;stroke-dashoffset:0" />
  </g>
</svg>
