G75*
%MOIN*%
%OFA0B0*%
%FSLAX24Y24*%
%IPPOS*%
%LPD*%
%AMOC8*
5,1,8,0,0,1.08239X$1,22.5*
%
%ADD10C,0.0000*%
%ADD11R,0.0500X0.0220*%
%ADD12R,0.0220X0.0500*%
%ADD13R,0.0400X0.1300*%
%ADD14R,0.0700X0.2000*%
%ADD15R,0.0709X0.0630*%
%ADD16R,0.0480X0.0880*%
%ADD17R,0.1417X0.0866*%
%ADD18R,0.0710X0.0630*%
%ADD19R,0.0630X0.0710*%
%ADD20R,0.0984X0.1004*%
%ADD21R,0.1004X0.0984*%
%ADD22C,0.0160*%
%ADD23C,0.0240*%
%ADD24C,0.0100*%
%ADD25C,0.0320*%
D10*
X000937Y000937D02*
X000937Y019835D01*
X019835Y019835D01*
X019835Y000937D01*
X000937Y000937D01*
D11*
X009997Y010710D03*
X009997Y011025D03*
X009997Y011340D03*
X009997Y011655D03*
X009997Y011970D03*
X009997Y012285D03*
X009997Y012600D03*
X009997Y012915D03*
X013377Y012915D03*
X013377Y012600D03*
X013377Y012285D03*
X013377Y011970D03*
X013377Y011655D03*
X013377Y011340D03*
X013377Y011025D03*
X013377Y010710D03*
D12*
X012790Y010122D03*
X012475Y010122D03*
X012160Y010122D03*
X011845Y010122D03*
X011530Y010122D03*
X011215Y010122D03*
X010900Y010122D03*
X010585Y010122D03*
X010585Y013502D03*
X010900Y013502D03*
X011215Y013502D03*
X011530Y013502D03*
X011845Y013502D03*
X012160Y013502D03*
X012475Y013502D03*
X012790Y013502D03*
D13*
X014187Y015312D03*
X015187Y016312D03*
X016187Y015312D03*
X017187Y016312D03*
X018187Y015312D03*
X012937Y016437D03*
X011937Y017437D03*
X010062Y016437D03*
X009062Y017437D03*
X007812Y016312D03*
X006812Y015312D03*
X005812Y016312D03*
X004812Y015312D03*
X003812Y016312D03*
X011187Y008187D03*
X012187Y007187D03*
X012562Y004937D03*
X011562Y004937D03*
X010562Y004937D03*
X009562Y004937D03*
X009562Y002937D03*
X010562Y002937D03*
X011562Y002937D03*
X012562Y002937D03*
X013562Y002937D03*
X013562Y004937D03*
X015812Y007812D03*
X014812Y008812D03*
X007812Y005937D03*
X006812Y004937D03*
X005812Y005937D03*
X004812Y004937D03*
X003812Y005937D03*
D14*
X006312Y008412D03*
X006312Y012212D03*
D15*
X004687Y012364D03*
X004687Y011261D03*
X004687Y008864D03*
X004687Y007761D03*
D16*
X016028Y005532D03*
X016937Y005532D03*
X017847Y005532D03*
D17*
X016937Y003092D03*
D18*
X015937Y010503D03*
X015937Y011622D03*
X014687Y011622D03*
X014687Y010503D03*
D19*
X003872Y013937D03*
X002753Y013937D03*
D20*
X017562Y009556D03*
X017562Y007568D03*
D21*
X007431Y002937D03*
X005443Y002937D03*
D22*
X005437Y002931D01*
X006812Y004937D02*
X006812Y006187D01*
X007562Y006937D01*
X008312Y006937D01*
X010900Y009525D01*
X010900Y010122D01*
X011187Y010095D02*
X011187Y009312D01*
X010687Y008812D01*
X010687Y008437D01*
X008187Y005937D01*
X007812Y005937D01*
X006562Y006937D02*
X004812Y006937D01*
X004187Y006312D01*
X003812Y006312D01*
X003812Y005937D01*
X005812Y005937D02*
X005812Y005687D01*
X005812Y005937D02*
X005812Y006187D01*
X006312Y006187D01*
X007437Y007312D01*
X008187Y007312D01*
X010585Y009710D01*
X010585Y010122D01*
X010062Y010187D02*
X010062Y009687D01*
X008062Y007687D01*
X007312Y007687D01*
X006562Y006937D01*
X006312Y007687D02*
X006312Y008412D01*
X006312Y009562D01*
X007460Y010710D01*
X009997Y010710D01*
X009997Y011025D02*
X007500Y011025D01*
X006837Y011687D01*
X006312Y011687D01*
X006312Y012212D01*
X006161Y012364D01*
X007187Y013562D02*
X004247Y013562D01*
X003872Y013937D01*
X003812Y013997D01*
X003812Y016312D01*
X004812Y015312D02*
X004812Y014812D01*
X005687Y013937D01*
X007437Y013937D01*
X009090Y012285D01*
X009997Y012285D01*
X011437Y012285D01*
X011715Y012562D01*
X012437Y012562D01*
X013187Y013312D01*
X015687Y013312D01*
X017187Y014812D01*
X017187Y016312D01*
X016187Y015312D02*
X016187Y014562D01*
X015437Y013812D01*
X012937Y013812D01*
X012790Y013665D01*
X012790Y013502D01*
X012475Y013502D02*
X012475Y014100D01*
X012687Y014312D01*
X014687Y014312D01*
X015187Y014812D01*
X015187Y016312D01*
X014187Y015312D02*
X012437Y015312D01*
X012160Y015035D01*
X012160Y013502D01*
X011530Y013502D02*
X011530Y015780D01*
X011937Y016187D01*
X011937Y017437D01*
X011937Y017937D01*
X011437Y018437D01*
X003812Y018437D01*
X002753Y017378D01*
X002753Y013937D01*
X005812Y015062D02*
X005812Y016312D01*
X006812Y015312D02*
X006812Y015062D01*
X007312Y015062D01*
X009460Y012915D01*
X009997Y012915D01*
X009997Y012600D02*
X009275Y012600D01*
X007562Y014312D01*
X006562Y014312D01*
X005812Y015062D01*
X007187Y013562D02*
X008780Y011970D01*
X009410Y011340D01*
X009997Y011340D01*
X010025Y011312D01*
X010687Y011312D01*
X010937Y011062D01*
X010062Y010187D01*
X010937Y011062D02*
X013340Y011062D01*
X013377Y011025D01*
X013415Y011062D01*
X016687Y011062D01*
X016937Y010812D01*
X016937Y010312D01*
X016437Y009812D01*
X016437Y006687D01*
X016687Y006687D01*
X017187Y007187D01*
X017562Y007187D01*
X017562Y007568D01*
X016437Y006687D02*
X016062Y006312D01*
X016062Y005567D01*
X016028Y005532D01*
X014562Y006062D02*
X014562Y002437D01*
X014062Y001937D01*
X012062Y001937D01*
X011562Y002437D01*
X011562Y002937D01*
X012562Y002937D02*
X012562Y003437D01*
X013062Y003937D01*
X013812Y003937D01*
X014187Y004312D01*
X014187Y005937D01*
X013437Y006687D01*
X013437Y008812D01*
X012790Y009460D01*
X012790Y010122D01*
X012475Y010122D02*
X012475Y009275D01*
X013062Y008687D01*
X013062Y006312D01*
X012562Y005812D01*
X011937Y005812D01*
X011562Y005437D01*
X011562Y004937D01*
X010562Y004937D02*
X010562Y005937D01*
X010812Y006187D01*
X012437Y006187D01*
X012687Y006437D01*
X012687Y008562D01*
X012187Y009062D01*
X012187Y010095D01*
X012160Y010122D01*
X011845Y010122D02*
X011845Y008030D01*
X012187Y007687D01*
X012187Y007187D01*
X011187Y008187D02*
X011187Y008562D01*
X011530Y008905D01*
X011530Y010122D01*
X011215Y010122D02*
X011187Y010095D01*
X011530Y011655D02*
X009997Y011655D01*
X009997Y011970D02*
X008780Y011970D01*
X009747Y013502D02*
X007812Y015437D01*
X007812Y016312D01*
X007937Y016187D01*
X009062Y015812D02*
X009062Y017437D01*
X010062Y016437D02*
X010062Y015437D01*
X011215Y014285D01*
X011215Y013502D01*
X010900Y013502D02*
X010900Y013975D01*
X009062Y015812D01*
X009747Y013502D02*
X010585Y013502D01*
X011437Y012285D02*
X011465Y012285D01*
X011812Y011937D01*
X011530Y011655D01*
X011812Y011937D02*
X011845Y011970D01*
X013377Y011970D01*
X013377Y012600D02*
X014400Y012600D01*
X014687Y012312D01*
X014687Y011622D01*
X014687Y010503D02*
X014687Y008937D01*
X014812Y008812D01*
X015812Y007812D02*
X015937Y007937D01*
X015937Y010503D01*
X016687Y011062D02*
X016937Y011312D01*
X016937Y013562D01*
X018187Y014812D01*
X018187Y015312D01*
X015710Y012915D02*
X015937Y012687D01*
X015937Y011622D01*
X015710Y012915D02*
X013377Y012915D01*
X013377Y010710D02*
X013665Y010710D01*
X013937Y010437D01*
X013937Y006687D01*
X014562Y006062D01*
X010062Y004062D02*
X009562Y004562D01*
X009562Y004687D01*
X009562Y004937D01*
X007562Y003062D02*
X007562Y002937D01*
X006312Y007687D02*
X006239Y007761D01*
D23*
X004687Y007761D01*
X004687Y008864D02*
X002136Y008864D01*
X001812Y009187D01*
X001812Y010937D01*
X002136Y011261D01*
X004687Y011261D01*
X004687Y012364D02*
X006161Y012364D01*
X001812Y010937D02*
X001812Y017312D01*
X003562Y019062D01*
X017937Y019062D01*
X018562Y018437D01*
X017562Y018437D01*
X017187Y018062D01*
X017187Y016312D01*
X017187Y018062D02*
X016812Y018437D01*
X013312Y018437D01*
X012937Y018062D01*
X012937Y016437D01*
X017562Y012937D02*
X018937Y014312D01*
X018937Y018062D01*
X018562Y018437D01*
X017562Y012937D02*
X017562Y009556D01*
X018562Y008556D01*
X018562Y006937D01*
X017847Y006222D01*
X017847Y005532D01*
X016937Y003092D02*
X016937Y002062D01*
X016437Y001562D01*
X010437Y001562D01*
X010062Y001937D01*
X010062Y004062D01*
X009562Y004687D02*
X009187Y004687D01*
X007562Y003062D01*
X007562Y002937D02*
X007431Y002937D01*
X005812Y001562D02*
X005437Y001937D01*
X005437Y002931D01*
X005443Y002937D02*
X005443Y003806D01*
X004812Y004437D01*
X004812Y004937D01*
X002812Y004937D01*
X001812Y005937D01*
X001812Y009187D01*
X005812Y001562D02*
X009187Y001562D01*
X009562Y001937D01*
X009562Y002937D01*
D24*
X009562Y002887D02*
X009512Y002887D01*
X009612Y002887D01*
X009612Y002137D01*
X009652Y002137D01*
X009652Y001856D01*
X009715Y001705D01*
X009830Y001590D01*
X010033Y001387D01*
X009437Y001387D01*
X009437Y002137D01*
X009512Y002137D01*
X009512Y002887D01*
X009512Y002137D01*
X009343Y002137D01*
X009305Y002148D01*
X009270Y002167D01*
X009242Y002195D01*
X009223Y002230D01*
X009212Y002268D01*
X009212Y002887D01*
X009512Y002887D01*
X009512Y002987D01*
X009212Y002987D01*
X009212Y003607D01*
X009223Y003645D01*
X009242Y003680D01*
X009270Y003707D01*
X009305Y003727D01*
X009343Y003737D01*
X009512Y003737D01*
X009437Y003737D01*
X009437Y003997D01*
X009604Y003997D01*
X009652Y003949D01*
X009652Y003737D01*
X009612Y003737D01*
X009612Y002987D01*
X009512Y002987D01*
X009512Y003737D01*
X009512Y002987D01*
X009562Y002987D01*
X009562Y003997D01*
X009305Y003997D01*
X009198Y004042D01*
X009160Y004080D01*
X008223Y003144D01*
X008223Y002388D01*
X008179Y002281D01*
X008098Y002199D01*
X007991Y002155D01*
X006872Y002155D01*
X006765Y002199D01*
X006684Y002281D01*
X006640Y002388D01*
X006640Y003487D01*
X006684Y003594D01*
X006765Y003675D01*
X006872Y003720D01*
X007640Y003720D01*
X008840Y004920D01*
X008955Y005035D01*
X009072Y005084D01*
X009072Y005645D01*
X009117Y005752D01*
X009198Y005833D01*
X009305Y005877D01*
X009562Y005877D01*
X009562Y006789D01*
X008501Y005728D01*
X008501Y005728D01*
X008397Y005624D01*
X008302Y005585D01*
X008302Y005230D01*
X008258Y005123D01*
X008177Y005042D01*
X008070Y004997D01*
X007555Y004997D01*
X007448Y005042D01*
X007367Y005123D01*
X007322Y005230D01*
X007322Y006174D01*
X007182Y006034D01*
X007182Y005828D01*
X007258Y005752D01*
X007302Y005645D01*
X007302Y004230D01*
X007258Y004123D01*
X007177Y004042D01*
X007070Y003997D01*
X006555Y003997D01*
X006448Y004042D01*
X006367Y004123D01*
X006322Y004230D01*
X006322Y005645D01*
X006367Y005752D01*
X006442Y005828D01*
X006442Y005841D01*
X006386Y005817D01*
X006302Y005817D01*
X006302Y005230D01*
X006258Y005123D01*
X006177Y005042D01*
X006070Y004997D01*
X005555Y004997D01*
X005448Y005042D01*
X005367Y005123D01*
X005322Y005230D01*
X005322Y006567D01*
X004966Y006567D01*
X004501Y006103D01*
X004397Y005999D01*
X004302Y005960D01*
X004302Y005230D01*
X004258Y005123D01*
X004177Y005042D01*
X004070Y004997D01*
X003555Y004997D01*
X003448Y005042D01*
X003367Y005123D01*
X003322Y005230D01*
X003322Y006645D01*
X003367Y006752D01*
X003448Y006833D01*
X003555Y006877D01*
X004070Y006877D01*
X004177Y006833D01*
X004181Y006829D01*
X004508Y007156D01*
X004275Y007156D01*
X004169Y007200D01*
X004087Y007282D01*
X004043Y007389D01*
X004043Y008134D01*
X004087Y008240D01*
X004169Y008322D01*
X004275Y008366D01*
X005099Y008366D01*
X005206Y008322D01*
X005288Y008240D01*
X005316Y008171D01*
X005672Y008171D01*
X005672Y009470D01*
X005717Y009577D01*
X005798Y009658D01*
X005905Y009702D01*
X005970Y009702D01*
X005999Y009772D01*
X006103Y009876D01*
X007114Y010887D01*
X006921Y011080D01*
X006908Y011048D01*
X006827Y010967D01*
X006720Y010922D01*
X005905Y010922D01*
X005798Y010967D01*
X005717Y011048D01*
X005672Y011155D01*
X005672Y011954D01*
X005316Y011954D01*
X005288Y011884D01*
X005206Y011803D01*
X005099Y011759D01*
X004275Y011759D01*
X004169Y011803D01*
X004087Y011884D01*
X004043Y011991D01*
X004043Y012736D01*
X004087Y012843D01*
X004169Y012924D01*
X004275Y012969D01*
X005099Y012969D01*
X005206Y012924D01*
X005288Y012843D01*
X005316Y012774D01*
X005672Y012774D01*
X005672Y013192D01*
X004174Y013192D01*
X004038Y013249D01*
X003994Y013292D01*
X003500Y013292D01*
X003393Y013337D01*
X003312Y013417D01*
X003232Y013337D01*
X003125Y013292D01*
X002380Y013292D01*
X002273Y013337D01*
X002192Y013418D01*
X002148Y013525D01*
X002148Y014062D01*
X001387Y014062D01*
X001387Y001387D01*
X009562Y001387D01*
X009562Y002887D01*
X009512Y002907D02*
X008223Y002907D01*
X008223Y002809D02*
X009212Y002809D01*
X009212Y002710D02*
X008223Y002710D01*
X008223Y002612D02*
X009212Y002612D01*
X009212Y002513D02*
X008223Y002513D01*
X008223Y002415D02*
X009212Y002415D01*
X009212Y002316D02*
X008194Y002316D01*
X008116Y002218D02*
X009229Y002218D01*
X009437Y002119D02*
X009652Y002119D01*
X009562Y002119D02*
X001387Y002119D01*
X001387Y002021D02*
X009562Y002021D01*
X009652Y002021D02*
X009437Y002021D01*
X009437Y001922D02*
X009652Y001922D01*
X009562Y001922D02*
X001387Y001922D01*
X001387Y001824D02*
X009562Y001824D01*
X009562Y001725D02*
X001387Y001725D01*
X001387Y001627D02*
X009562Y001627D01*
X009562Y001528D02*
X001387Y001528D01*
X001387Y001430D02*
X009562Y001430D01*
X009437Y001430D02*
X009990Y001430D01*
X009892Y001528D02*
X009437Y001528D01*
X009437Y001627D02*
X009793Y001627D01*
X009706Y001725D02*
X009437Y001725D01*
X009437Y001824D02*
X009666Y001824D01*
X009612Y002218D02*
X009512Y002218D01*
X009562Y002218D01*
X009562Y002316D02*
X009512Y002316D01*
X009612Y002316D01*
X009612Y002415D02*
X009512Y002415D01*
X009562Y002415D01*
X009562Y002513D02*
X009512Y002513D01*
X009612Y002513D01*
X009612Y002612D02*
X009512Y002612D01*
X009562Y002612D01*
X009562Y002710D02*
X009512Y002710D01*
X009612Y002710D01*
X009612Y002809D02*
X009512Y002809D01*
X009562Y002809D01*
X009562Y003006D02*
X009512Y003006D01*
X009612Y003006D01*
X009612Y003104D02*
X009512Y003104D01*
X009562Y003104D01*
X009562Y003203D02*
X009512Y003203D01*
X009612Y003203D01*
X009612Y003301D02*
X009512Y003301D01*
X009562Y003301D01*
X009562Y003400D02*
X009512Y003400D01*
X009612Y003400D01*
X009612Y003498D02*
X009512Y003498D01*
X009562Y003498D01*
X009562Y003597D02*
X009512Y003597D01*
X009612Y003597D01*
X009612Y003695D02*
X009512Y003695D01*
X009562Y003695D01*
X009562Y003794D02*
X008874Y003794D01*
X008972Y003892D02*
X009562Y003892D01*
X009652Y003892D02*
X009437Y003892D01*
X009437Y003794D02*
X009652Y003794D01*
X009611Y003991D02*
X009437Y003991D01*
X009562Y003991D02*
X009071Y003991D01*
X009258Y003695D02*
X008775Y003695D01*
X008677Y003597D02*
X009212Y003597D01*
X009212Y003498D02*
X008578Y003498D01*
X008480Y003400D02*
X009212Y003400D01*
X009212Y003301D02*
X008381Y003301D01*
X008283Y003203D02*
X009212Y003203D01*
X009212Y003104D02*
X008223Y003104D01*
X008223Y003006D02*
X009212Y003006D01*
X008108Y004188D02*
X007285Y004188D01*
X007302Y004286D02*
X008207Y004286D01*
X008305Y004385D02*
X007302Y004385D01*
X007302Y004483D02*
X008404Y004483D01*
X008502Y004582D02*
X007302Y004582D01*
X007302Y004680D02*
X008601Y004680D01*
X008699Y004779D02*
X007302Y004779D01*
X007302Y004877D02*
X008798Y004877D01*
X008896Y004976D02*
X007302Y004976D01*
X007302Y005074D02*
X007415Y005074D01*
X007346Y005173D02*
X007302Y005173D01*
X007302Y005271D02*
X007322Y005271D01*
X007322Y005370D02*
X007302Y005370D01*
X007302Y005468D02*
X007322Y005468D01*
X007322Y005567D02*
X007302Y005567D01*
X007294Y005665D02*
X007322Y005665D01*
X007322Y005764D02*
X007246Y005764D01*
X007182Y005862D02*
X007322Y005862D01*
X007322Y005961D02*
X007182Y005961D01*
X007208Y006059D02*
X007322Y006059D01*
X007322Y006158D02*
X007306Y006158D01*
X008302Y005567D02*
X009072Y005567D01*
X009072Y005468D02*
X008302Y005468D01*
X008302Y005370D02*
X009072Y005370D01*
X009072Y005271D02*
X008302Y005271D01*
X008279Y005173D02*
X009072Y005173D01*
X009050Y005074D02*
X008210Y005074D01*
X008439Y005665D02*
X009081Y005665D01*
X009129Y005764D02*
X008537Y005764D01*
X008636Y005862D02*
X009269Y005862D01*
X009562Y005961D02*
X008734Y005961D01*
X008833Y006059D02*
X009562Y006059D01*
X009562Y006158D02*
X008931Y006158D01*
X009030Y006256D02*
X009562Y006256D01*
X009562Y006355D02*
X009128Y006355D01*
X009227Y006453D02*
X009562Y006453D01*
X009562Y006552D02*
X009325Y006552D01*
X009424Y006650D02*
X009562Y006650D01*
X009562Y006749D02*
X009522Y006749D01*
X008010Y004089D02*
X007225Y004089D01*
X006814Y003695D02*
X001387Y003695D01*
X001387Y003597D02*
X006687Y003597D01*
X006644Y003498D02*
X006079Y003498D01*
X006085Y003487D02*
X006065Y003522D01*
X006037Y003550D01*
X006003Y003569D01*
X005965Y003580D01*
X005493Y003580D01*
X005493Y002987D01*
X006095Y002987D01*
X006095Y003449D01*
X006085Y003487D01*
X006095Y003400D02*
X006640Y003400D01*
X006640Y003301D02*
X006095Y003301D01*
X006095Y003203D02*
X006640Y003203D01*
X006640Y003104D02*
X006095Y003104D01*
X006095Y003006D02*
X006640Y003006D01*
X006640Y002907D02*
X005493Y002907D01*
X005493Y002887D02*
X005493Y002987D01*
X005393Y002987D01*
X005393Y002887D01*
X005493Y002887D01*
X005493Y002295D01*
X005965Y002295D01*
X006003Y002305D01*
X006037Y002325D01*
X006065Y002353D01*
X006085Y002387D01*
X006095Y002426D01*
X006095Y002887D01*
X005493Y002887D01*
X005493Y002809D02*
X005393Y002809D01*
X005393Y002887D02*
X005393Y002295D01*
X004922Y002295D01*
X004883Y002305D01*
X004849Y002325D01*
X004821Y002353D01*
X004802Y002387D01*
X004791Y002426D01*
X004791Y002887D01*
X005393Y002887D01*
X005393Y002907D02*
X001387Y002907D01*
X001387Y002809D02*
X004791Y002809D01*
X004791Y002710D02*
X001387Y002710D01*
X001387Y002612D02*
X004791Y002612D01*
X004791Y002513D02*
X001387Y002513D01*
X001387Y002415D02*
X004794Y002415D01*
X004865Y002316D02*
X001387Y002316D01*
X001387Y002218D02*
X006747Y002218D01*
X006669Y002316D02*
X006022Y002316D01*
X006092Y002415D02*
X006640Y002415D01*
X006640Y002513D02*
X006095Y002513D01*
X006095Y002612D02*
X006640Y002612D01*
X006640Y002710D02*
X006095Y002710D01*
X006095Y002809D02*
X006640Y002809D01*
X005493Y002710D02*
X005393Y002710D01*
X005393Y002612D02*
X005493Y002612D01*
X005493Y002513D02*
X005393Y002513D01*
X005393Y002415D02*
X005493Y002415D01*
X005493Y002316D02*
X005393Y002316D01*
X005393Y002987D02*
X004791Y002987D01*
X004791Y003449D01*
X004802Y003487D01*
X004821Y003522D01*
X004849Y003550D01*
X004883Y003569D01*
X004922Y003580D01*
X005393Y003580D01*
X005393Y002987D01*
X005393Y003006D02*
X005493Y003006D01*
X005493Y003104D02*
X005393Y003104D01*
X005393Y003203D02*
X005493Y003203D01*
X005493Y003301D02*
X005393Y003301D01*
X005393Y003400D02*
X005493Y003400D01*
X005493Y003498D02*
X005393Y003498D01*
X004808Y003498D02*
X001387Y003498D01*
X001387Y003400D02*
X004791Y003400D01*
X004791Y003301D02*
X001387Y003301D01*
X001387Y003203D02*
X004791Y003203D01*
X004791Y003104D02*
X001387Y003104D01*
X001387Y003006D02*
X004791Y003006D01*
X004762Y004137D02*
X004762Y004887D01*
X004862Y004887D01*
X004862Y004137D01*
X005032Y004137D01*
X005070Y004148D01*
X005105Y004167D01*
X005132Y004195D01*
X005152Y004230D01*
X005162Y004268D01*
X005162Y004887D01*
X004862Y004887D01*
X004862Y004987D01*
X004762Y004987D01*
X004762Y004887D01*
X004462Y004887D01*
X004462Y004268D01*
X004473Y004230D01*
X004492Y004195D01*
X004520Y004167D01*
X004555Y004148D01*
X004593Y004137D01*
X004762Y004137D01*
X004762Y004188D02*
X004862Y004188D01*
X004862Y004286D02*
X004762Y004286D01*
X004762Y004385D02*
X004862Y004385D01*
X004862Y004483D02*
X004762Y004483D01*
X004762Y004582D02*
X004862Y004582D01*
X004862Y004680D02*
X004762Y004680D01*
X004762Y004779D02*
X004862Y004779D01*
X004862Y004877D02*
X004762Y004877D01*
X004762Y004976D02*
X001387Y004976D01*
X001387Y005074D02*
X003415Y005074D01*
X003346Y005173D02*
X001387Y005173D01*
X001387Y005271D02*
X003322Y005271D01*
X003322Y005370D02*
X001387Y005370D01*
X001387Y005468D02*
X003322Y005468D01*
X003322Y005567D02*
X001387Y005567D01*
X001387Y005665D02*
X003322Y005665D01*
X003322Y005764D02*
X001387Y005764D01*
X001387Y005862D02*
X003322Y005862D01*
X003322Y005961D02*
X001387Y005961D01*
X001387Y006059D02*
X003322Y006059D01*
X003322Y006158D02*
X001387Y006158D01*
X001387Y006256D02*
X003322Y006256D01*
X003322Y006355D02*
X001387Y006355D01*
X001387Y006453D02*
X003322Y006453D01*
X003322Y006552D02*
X001387Y006552D01*
X001387Y006650D02*
X003325Y006650D01*
X003365Y006749D02*
X001387Y006749D01*
X001387Y006847D02*
X003482Y006847D01*
X004142Y006847D02*
X004199Y006847D01*
X004298Y006946D02*
X001387Y006946D01*
X001387Y007044D02*
X004396Y007044D01*
X004495Y007143D02*
X001387Y007143D01*
X001387Y007241D02*
X004128Y007241D01*
X004063Y007340D02*
X001387Y007340D01*
X001387Y007438D02*
X004043Y007438D01*
X004043Y007537D02*
X001387Y007537D01*
X001387Y007635D02*
X004043Y007635D01*
X004043Y007734D02*
X001387Y007734D01*
X001387Y007832D02*
X004043Y007832D01*
X004043Y007931D02*
X001387Y007931D01*
X001387Y008029D02*
X004043Y008029D01*
X004043Y008128D02*
X001387Y008128D01*
X001387Y008226D02*
X004081Y008226D01*
X004176Y008325D02*
X001387Y008325D01*
X001387Y008423D02*
X004250Y008423D01*
X004241Y008429D02*
X004275Y008409D01*
X004313Y008399D01*
X004637Y008399D01*
X004637Y008814D01*
X004183Y008814D01*
X004183Y008529D01*
X004193Y008491D01*
X004213Y008457D01*
X004241Y008429D01*
X004185Y008522D02*
X001387Y008522D01*
X001387Y008620D02*
X004183Y008620D01*
X004183Y008719D02*
X001387Y008719D01*
X001387Y008817D02*
X004637Y008817D01*
X004637Y008814D02*
X004637Y008914D01*
X004637Y009329D01*
X004313Y009329D01*
X004275Y009318D01*
X004241Y009299D01*
X004213Y009271D01*
X004193Y009236D01*
X004183Y009198D01*
X004183Y008914D01*
X004637Y008914D01*
X004737Y008914D01*
X004737Y009329D01*
X005061Y009329D01*
X005100Y009318D01*
X005134Y009299D01*
X005162Y009271D01*
X005182Y009236D01*
X005192Y009198D01*
X005192Y008914D01*
X004737Y008914D01*
X004737Y008814D01*
X005192Y008814D01*
X005192Y008529D01*
X005182Y008491D01*
X005162Y008457D01*
X005134Y008429D01*
X005100Y008409D01*
X005061Y008399D01*
X004737Y008399D01*
X004737Y008814D01*
X004637Y008814D01*
X004637Y008719D02*
X004737Y008719D01*
X004737Y008817D02*
X005672Y008817D01*
X005672Y008719D02*
X005192Y008719D01*
X005192Y008620D02*
X005672Y008620D01*
X005672Y008522D02*
X005190Y008522D01*
X005125Y008423D02*
X005672Y008423D01*
X005672Y008325D02*
X005199Y008325D01*
X005293Y008226D02*
X005672Y008226D01*
X005672Y008916D02*
X005192Y008916D01*
X005192Y009014D02*
X005672Y009014D01*
X005672Y009113D02*
X005192Y009113D01*
X005188Y009211D02*
X005672Y009211D01*
X005672Y009310D02*
X005114Y009310D01*
X004737Y009310D02*
X004637Y009310D01*
X004637Y009211D02*
X004737Y009211D01*
X004737Y009113D02*
X004637Y009113D01*
X004637Y009014D02*
X004737Y009014D01*
X004737Y008916D02*
X004637Y008916D01*
X004637Y008620D02*
X004737Y008620D01*
X004737Y008522D02*
X004637Y008522D01*
X004637Y008423D02*
X004737Y008423D01*
X004183Y008916D02*
X001387Y008916D01*
X001387Y009014D02*
X004183Y009014D01*
X004183Y009113D02*
X001387Y009113D01*
X001387Y009211D02*
X004187Y009211D01*
X004261Y009310D02*
X001387Y009310D01*
X001387Y009408D02*
X005672Y009408D01*
X005688Y009507D02*
X001387Y009507D01*
X001387Y009605D02*
X005745Y009605D01*
X005971Y009704D02*
X001387Y009704D01*
X001387Y009802D02*
X006029Y009802D01*
X006128Y009901D02*
X001387Y009901D01*
X001387Y009999D02*
X006226Y009999D01*
X006325Y010098D02*
X001387Y010098D01*
X001387Y010196D02*
X006423Y010196D01*
X006522Y010295D02*
X001387Y010295D01*
X001387Y010393D02*
X006620Y010393D01*
X006719Y010492D02*
X001387Y010492D01*
X001387Y010590D02*
X006817Y010590D01*
X006916Y010689D02*
X001387Y010689D01*
X001387Y010787D02*
X007014Y010787D01*
X007113Y010886D02*
X005180Y010886D01*
X005182Y010888D02*
X005192Y010927D01*
X005192Y011211D01*
X004737Y011211D01*
X004737Y010796D01*
X005061Y010796D01*
X005100Y010806D01*
X005134Y010826D01*
X005162Y010854D01*
X005182Y010888D01*
X005192Y010984D02*
X005780Y010984D01*
X005702Y011083D02*
X005192Y011083D01*
X005192Y011181D02*
X005672Y011181D01*
X005672Y011280D02*
X004737Y011280D01*
X004737Y011311D02*
X005192Y011311D01*
X005192Y011596D01*
X005182Y011634D01*
X005162Y011668D01*
X005134Y011696D01*
X005100Y011716D01*
X005061Y011726D01*
X004737Y011726D01*
X004737Y011311D01*
X004637Y011311D01*
X004637Y011211D01*
X004183Y011211D01*
X004183Y010927D01*
X004193Y010888D01*
X004213Y010854D01*
X004241Y010826D01*
X004275Y010806D01*
X004313Y010796D01*
X004637Y010796D01*
X004637Y011211D01*
X004737Y011211D01*
X004737Y011311D01*
X004737Y011378D02*
X004637Y011378D01*
X004637Y011311D02*
X004637Y011726D01*
X004313Y011726D01*
X004275Y011716D01*
X004241Y011696D01*
X004213Y011668D01*
X004193Y011634D01*
X004183Y011596D01*
X004183Y011311D01*
X004637Y011311D01*
X004637Y011280D02*
X001387Y011280D01*
X001387Y011378D02*
X004183Y011378D01*
X004183Y011477D02*
X001387Y011477D01*
X001387Y011575D02*
X004183Y011575D01*
X004219Y011674D02*
X001387Y011674D01*
X001387Y011772D02*
X004242Y011772D01*
X004101Y011871D02*
X001387Y011871D01*
X001387Y011969D02*
X004052Y011969D01*
X004043Y012068D02*
X001387Y012068D01*
X001387Y012166D02*
X004043Y012166D01*
X004043Y012265D02*
X001387Y012265D01*
X001387Y012363D02*
X004043Y012363D01*
X004043Y012462D02*
X001387Y012462D01*
X001387Y012560D02*
X004043Y012560D01*
X004043Y012659D02*
X001387Y012659D01*
X001387Y012757D02*
X004052Y012757D01*
X004100Y012856D02*
X001387Y012856D01*
X001387Y012954D02*
X004241Y012954D01*
X004036Y013250D02*
X001387Y013250D01*
X001387Y013348D02*
X002262Y013348D01*
X002180Y013447D02*
X001387Y013447D01*
X001387Y013545D02*
X002148Y013545D01*
X002148Y013644D02*
X001387Y013644D01*
X001387Y013742D02*
X002148Y013742D01*
X002148Y013825D02*
X001387Y013820D01*
X001387Y019385D01*
X019385Y019385D01*
X019385Y013930D01*
X017819Y013920D01*
X018271Y014372D01*
X018445Y014372D01*
X018552Y014417D01*
X018633Y014498D01*
X018677Y014605D01*
X018677Y016020D01*
X018633Y016127D01*
X018552Y016208D01*
X018445Y016252D01*
X017930Y016252D01*
X017823Y016208D01*
X017742Y016127D01*
X017697Y016020D01*
X017697Y014846D01*
X016766Y013914D01*
X016058Y013910D01*
X016397Y014249D01*
X016501Y014353D01*
X016522Y014404D01*
X016552Y014417D01*
X016633Y014498D01*
X016677Y014605D01*
X016677Y016020D01*
X016633Y016127D01*
X016552Y016208D01*
X016445Y016252D01*
X015930Y016252D01*
X015823Y016208D01*
X015742Y016127D01*
X015697Y016020D01*
X015697Y014605D01*
X015700Y014598D01*
X015284Y014182D01*
X015081Y014182D01*
X015397Y014499D01*
X015501Y014603D01*
X015557Y014739D01*
X015557Y015422D01*
X015633Y015498D01*
X015677Y015605D01*
X015677Y017020D01*
X015633Y017127D01*
X015552Y017208D01*
X015445Y017252D01*
X014930Y017252D01*
X014823Y017208D01*
X014742Y017127D01*
X014697Y017020D01*
X014697Y015605D01*
X014742Y015498D01*
X014817Y015422D01*
X014817Y014966D01*
X014677Y014826D01*
X014678Y014826D01*
X014677Y014826D02*
X014677Y016020D01*
X014633Y016127D01*
X014552Y016208D01*
X014445Y016252D01*
X013930Y016252D01*
X013823Y016208D01*
X013742Y016127D01*
X013697Y016020D01*
X013697Y015682D01*
X013245Y015682D01*
X013257Y015695D01*
X013277Y015730D01*
X013287Y015768D01*
X013287Y016387D01*
X012987Y016387D01*
X012987Y016487D01*
X012887Y016487D01*
X012887Y016387D01*
X012587Y016387D01*
X012587Y015768D01*
X012598Y015730D01*
X012617Y015695D01*
X012630Y015682D01*
X012364Y015682D01*
X012228Y015626D01*
X012124Y015522D01*
X011900Y015298D01*
X011900Y015627D01*
X012147Y015874D01*
X012251Y015978D01*
X012307Y016114D01*
X012307Y016547D01*
X012383Y016623D01*
X012427Y016730D01*
X012427Y018145D01*
X012383Y018252D01*
X012302Y018333D01*
X012195Y018377D01*
X012021Y018377D01*
X011647Y018751D01*
X011511Y018807D01*
X003739Y018807D01*
X003603Y018751D01*
X003499Y018647D01*
X002439Y017587D01*
X002383Y017451D01*
X002383Y014582D01*
X002380Y014582D01*
X002273Y014538D01*
X002192Y014457D01*
X002148Y014350D01*
X002148Y013825D01*
X002148Y013841D02*
X001387Y013841D01*
X002148Y013841D01*
X002148Y013939D02*
X001387Y013939D01*
X002148Y013939D01*
X002148Y014038D02*
X001387Y014038D01*
X002148Y014038D01*
X002148Y014136D02*
X001387Y014136D01*
X001387Y014235D02*
X002148Y014235D01*
X002148Y014333D02*
X001387Y014333D01*
X001387Y014432D02*
X002182Y014432D01*
X002266Y014530D02*
X001387Y014530D01*
X001387Y014629D02*
X002383Y014629D01*
X002383Y014727D02*
X001387Y014727D01*
X001387Y014826D02*
X002383Y014826D01*
X002383Y014924D02*
X001387Y014924D01*
X001387Y015023D02*
X002383Y015023D01*
X002383Y015121D02*
X001387Y015121D01*
X001387Y015220D02*
X002383Y015220D01*
X002383Y015318D02*
X001387Y015318D01*
X001387Y015417D02*
X002383Y015417D01*
X002383Y015515D02*
X001387Y015515D01*
X001387Y015614D02*
X002383Y015614D01*
X002383Y015712D02*
X001387Y015712D01*
X001387Y015811D02*
X002383Y015811D01*
X002383Y015909D02*
X001387Y015909D01*
X001387Y016008D02*
X002383Y016008D01*
X002383Y016106D02*
X001387Y016106D01*
X001387Y016205D02*
X002383Y016205D01*
X002383Y016303D02*
X001387Y016303D01*
X001387Y016402D02*
X002383Y016402D01*
X002383Y016500D02*
X001387Y016500D01*
X001387Y016599D02*
X002383Y016599D01*
X002383Y016697D02*
X001387Y016697D01*
X001387Y016796D02*
X002383Y016796D01*
X002383Y016894D02*
X001387Y016894D01*
X001387Y016993D02*
X002383Y016993D01*
X002383Y017091D02*
X001387Y017091D01*
X001387Y017190D02*
X002383Y017190D01*
X002383Y017288D02*
X001387Y017288D01*
X001387Y017387D02*
X002383Y017387D01*
X002397Y017485D02*
X001387Y017485D01*
X001387Y017584D02*
X002438Y017584D01*
X002534Y017682D02*
X001387Y017682D01*
X001387Y017781D02*
X002633Y017781D01*
X002731Y017879D02*
X001387Y017879D01*
X001387Y017978D02*
X002830Y017978D01*
X002928Y018076D02*
X001387Y018076D01*
X001387Y018175D02*
X003027Y018175D01*
X003125Y018273D02*
X001387Y018273D01*
X001387Y018372D02*
X003224Y018372D01*
X003322Y018470D02*
X001387Y018470D01*
X001387Y018569D02*
X003421Y018569D01*
X003519Y018667D02*
X001387Y018667D01*
X001387Y018766D02*
X003639Y018766D01*
X003966Y018067D02*
X008572Y018067D01*
X008572Y016730D01*
X008617Y016623D01*
X008692Y016547D01*
X008692Y015739D01*
X008749Y015603D01*
X008853Y015499D01*
X010341Y014011D01*
X010311Y013998D01*
X010229Y013917D01*
X010211Y013874D01*
X009977Y013872D01*
X009901Y013872D01*
X008263Y015510D01*
X008302Y015605D01*
X008302Y016102D01*
X008307Y016114D01*
X008307Y016261D01*
X008302Y016273D01*
X008302Y017020D01*
X008258Y017127D01*
X008177Y017208D01*
X008070Y017252D01*
X007555Y017252D01*
X007448Y017208D01*
X007367Y017127D01*
X007322Y017020D01*
X007322Y015605D01*
X007367Y015498D01*
X007442Y015422D01*
X007442Y015409D01*
X007386Y015432D01*
X007302Y015432D01*
X007302Y016020D01*
X007258Y016127D01*
X007177Y016208D01*
X007070Y016252D01*
X006555Y016252D01*
X006448Y016208D01*
X006367Y016127D01*
X006322Y016020D01*
X006322Y015076D01*
X006182Y015216D01*
X006182Y015422D01*
X006258Y015498D01*
X006302Y015605D01*
X006302Y017020D01*
X006258Y017127D01*
X006177Y017208D01*
X006070Y017252D01*
X005555Y017252D01*
X005448Y017208D01*
X005367Y017127D01*
X005322Y017020D01*
X005322Y015605D01*
X005367Y015498D01*
X005442Y015422D01*
X005442Y014989D01*
X005499Y014853D01*
X005603Y014749D01*
X006353Y013999D01*
X006489Y013942D01*
X007409Y013942D01*
X009012Y012340D01*
X008933Y012340D01*
X007501Y013772D01*
X007397Y013876D01*
X007261Y013932D01*
X004477Y013932D01*
X004477Y014062D01*
X006289Y014062D01*
X006353Y013999D01*
X006489Y013942D01*
X007409Y013942D01*
X007494Y013857D01*
X007416Y013857D01*
X007397Y013876D01*
X007261Y013932D01*
X004477Y013932D01*
X004477Y014350D01*
X004433Y014457D01*
X004351Y014538D01*
X004245Y014582D01*
X004182Y014582D01*
X004182Y015422D01*
X004258Y015498D01*
X004302Y015605D01*
X004302Y017020D01*
X004258Y017127D01*
X004177Y017208D01*
X004070Y017252D01*
X003555Y017252D01*
X003448Y017208D01*
X003367Y017127D01*
X003322Y017020D01*
X003322Y015605D01*
X003367Y015498D01*
X003442Y015422D01*
X003442Y014559D01*
X003393Y014538D01*
X003312Y014458D01*
X003232Y014538D01*
X003125Y014582D01*
X003123Y014582D01*
X003123Y017224D01*
X003966Y018067D01*
X003876Y017978D02*
X008572Y017978D01*
X008572Y017879D02*
X003778Y017879D01*
X003679Y017781D02*
X008572Y017781D01*
X008572Y017682D02*
X003581Y017682D01*
X003482Y017584D02*
X008572Y017584D01*
X008572Y017485D02*
X003384Y017485D01*
X003285Y017387D02*
X008572Y017387D01*
X008572Y017288D02*
X003187Y017288D01*
X003123Y017190D02*
X003430Y017190D01*
X003352Y017091D02*
X003123Y017091D01*
X003123Y016993D02*
X003322Y016993D01*
X003322Y016894D02*
X003123Y016894D01*
X003123Y016796D02*
X003322Y016796D01*
X003322Y016697D02*
X003123Y016697D01*
X003123Y016599D02*
X003322Y016599D01*
X003322Y016500D02*
X003123Y016500D01*
X003123Y016402D02*
X003322Y016402D01*
X003322Y016303D02*
X003123Y016303D01*
X003123Y016205D02*
X003322Y016205D01*
X003322Y016106D02*
X003123Y016106D01*
X003123Y016008D02*
X003322Y016008D01*
X003322Y015909D02*
X003123Y015909D01*
X003123Y015811D02*
X003322Y015811D01*
X003322Y015712D02*
X003123Y015712D01*
X003123Y015614D02*
X003322Y015614D01*
X003359Y015515D02*
X003123Y015515D01*
X003123Y015417D02*
X003442Y015417D01*
X003442Y015318D02*
X003123Y015318D01*
X003123Y015220D02*
X003442Y015220D01*
X003442Y015121D02*
X003123Y015121D01*
X003123Y015023D02*
X003442Y015023D01*
X003442Y014924D02*
X003123Y014924D01*
X003123Y014826D02*
X003442Y014826D01*
X003442Y014727D02*
X003123Y014727D01*
X003123Y014629D02*
X003442Y014629D01*
X003385Y014530D02*
X003240Y014530D01*
X004182Y014629D02*
X004466Y014629D01*
X004462Y014643D02*
X004473Y014605D01*
X004492Y014570D01*
X004520Y014542D01*
X004555Y014523D01*
X004593Y014512D01*
X004762Y014512D01*
X004762Y015262D01*
X004862Y015262D01*
X004862Y014512D01*
X005032Y014512D01*
X005070Y014523D01*
X005105Y014542D01*
X005132Y014570D01*
X005152Y014605D01*
X005162Y014643D01*
X005162Y015262D01*
X004862Y015262D01*
X004862Y015362D01*
X004762Y015362D01*
X004762Y015262D01*
X004462Y015262D01*
X004462Y014643D01*
X004462Y014727D02*
X004182Y014727D01*
X004182Y014826D02*
X004462Y014826D01*
X004462Y014924D02*
X004182Y014924D01*
X004182Y015023D02*
X004462Y015023D01*
X004462Y015121D02*
X004182Y015121D01*
X004182Y015220D02*
X004462Y015220D01*
X004462Y015362D02*
X004462Y015982D01*
X004473Y016020D01*
X004492Y016055D01*
X004520Y016082D01*
X004555Y016102D01*
X004593Y016112D01*
X004762Y016112D01*
X004762Y015362D01*
X004462Y015362D01*
X004462Y015417D02*
X004182Y015417D01*
X004182Y015318D02*
X004762Y015318D01*
X004762Y015220D02*
X004862Y015220D01*
X004862Y015318D02*
X005442Y015318D01*
X005442Y015220D02*
X005162Y015220D01*
X005162Y015121D02*
X005442Y015121D01*
X005442Y015023D02*
X005162Y015023D01*
X005162Y014924D02*
X005469Y014924D01*
X005526Y014826D02*
X005162Y014826D01*
X005162Y014727D02*
X005624Y014727D01*
X005723Y014629D02*
X005159Y014629D01*
X005084Y014530D02*
X005821Y014530D01*
X005920Y014432D02*
X004443Y014432D01*
X004477Y014333D02*
X006018Y014333D01*
X006117Y014235D02*
X004477Y014235D01*
X004477Y014136D02*
X006215Y014136D01*
X006314Y014038D02*
X004477Y014038D01*
X006314Y014038D01*
X005672Y013151D02*
X001387Y013151D01*
X001387Y013053D02*
X005672Y013053D01*
X005672Y012954D02*
X005133Y012954D01*
X005274Y012856D02*
X005672Y012856D01*
X005672Y011871D02*
X005274Y011871D01*
X005133Y011772D02*
X005672Y011772D01*
X005672Y011674D02*
X005156Y011674D01*
X005192Y011575D02*
X005672Y011575D01*
X005672Y011477D02*
X005192Y011477D01*
X005192Y011378D02*
X005672Y011378D01*
X004737Y011477D02*
X004637Y011477D01*
X004637Y011575D02*
X004737Y011575D01*
X004737Y011674D02*
X004637Y011674D01*
X004637Y011181D02*
X004737Y011181D01*
X004737Y011083D02*
X004637Y011083D01*
X004637Y010984D02*
X004737Y010984D01*
X004737Y010886D02*
X004637Y010886D01*
X004195Y010886D02*
X001387Y010886D01*
X001387Y010984D02*
X004183Y010984D01*
X004183Y011083D02*
X001387Y011083D01*
X001387Y011181D02*
X004183Y011181D01*
X003381Y013348D02*
X003244Y013348D01*
X004359Y014530D02*
X004541Y014530D01*
X004762Y014530D02*
X004862Y014530D01*
X004862Y014629D02*
X004762Y014629D01*
X004762Y014727D02*
X004862Y014727D01*
X004862Y014826D02*
X004762Y014826D01*
X004762Y014924D02*
X004862Y014924D01*
X004862Y015023D02*
X004762Y015023D01*
X004762Y015121D02*
X004862Y015121D01*
X004862Y015362D02*
X005162Y015362D01*
X005162Y015982D01*
X005152Y016020D01*
X005132Y016055D01*
X005105Y016082D01*
X005070Y016102D01*
X005032Y016112D01*
X004862Y016112D01*
X004862Y015362D01*
X004862Y015417D02*
X004762Y015417D01*
X004762Y015515D02*
X004862Y015515D01*
X004862Y015614D02*
X004762Y015614D01*
X004762Y015712D02*
X004862Y015712D01*
X004862Y015811D02*
X004762Y015811D01*
X004762Y015909D02*
X004862Y015909D01*
X004862Y016008D02*
X004762Y016008D01*
X004762Y016106D02*
X004862Y016106D01*
X005054Y016106D02*
X005322Y016106D01*
X005322Y016008D02*
X005155Y016008D01*
X005162Y015909D02*
X005322Y015909D01*
X005322Y015811D02*
X005162Y015811D01*
X005162Y015712D02*
X005322Y015712D01*
X005322Y015614D02*
X005162Y015614D01*
X005162Y015515D02*
X005359Y015515D01*
X005442Y015417D02*
X005162Y015417D01*
X004462Y015515D02*
X004265Y015515D01*
X004302Y015614D02*
X004462Y015614D01*
X004462Y015712D02*
X004302Y015712D01*
X004302Y015811D02*
X004462Y015811D01*
X004462Y015909D02*
X004302Y015909D01*
X004302Y016008D02*
X004469Y016008D01*
X004570Y016106D02*
X004302Y016106D01*
X004302Y016205D02*
X005322Y016205D01*
X005322Y016303D02*
X004302Y016303D01*
X004302Y016402D02*
X005322Y016402D01*
X005322Y016500D02*
X004302Y016500D01*
X004302Y016599D02*
X005322Y016599D01*
X005322Y016697D02*
X004302Y016697D01*
X004302Y016796D02*
X005322Y016796D01*
X005322Y016894D02*
X004302Y016894D01*
X004302Y016993D02*
X005322Y016993D01*
X005352Y017091D02*
X004273Y017091D01*
X004195Y017190D02*
X005430Y017190D01*
X006195Y017190D02*
X007430Y017190D01*
X007352Y017091D02*
X006273Y017091D01*
X006302Y016993D02*
X007322Y016993D01*
X007322Y016894D02*
X006302Y016894D01*
X006302Y016796D02*
X007322Y016796D01*
X007322Y016697D02*
X006302Y016697D01*
X006302Y016599D02*
X007322Y016599D01*
X007322Y016500D02*
X006302Y016500D01*
X006302Y016402D02*
X007322Y016402D01*
X007322Y016303D02*
X006302Y016303D01*
X006302Y016205D02*
X006445Y016205D01*
X006358Y016106D02*
X006302Y016106D01*
X006302Y016008D02*
X006322Y016008D01*
X006322Y015909D02*
X006302Y015909D01*
X006302Y015811D02*
X006322Y015811D01*
X006322Y015712D02*
X006302Y015712D01*
X006302Y015614D02*
X006322Y015614D01*
X006322Y015515D02*
X006265Y015515D01*
X006322Y015417D02*
X006182Y015417D01*
X006182Y015318D02*
X006322Y015318D01*
X006322Y015220D02*
X006182Y015220D01*
X006277Y015121D02*
X006322Y015121D01*
X007302Y015515D02*
X007359Y015515D01*
X007322Y015614D02*
X007302Y015614D01*
X007302Y015712D02*
X007322Y015712D01*
X007322Y015811D02*
X007302Y015811D01*
X007302Y015909D02*
X007322Y015909D01*
X007322Y016008D02*
X007302Y016008D01*
X007322Y016106D02*
X007267Y016106D01*
X007322Y016205D02*
X007180Y016205D01*
X007423Y015417D02*
X007442Y015417D01*
X008265Y015515D02*
X008836Y015515D01*
X008744Y015614D02*
X008302Y015614D01*
X008302Y015712D02*
X008703Y015712D01*
X008692Y015811D02*
X008302Y015811D01*
X008302Y015909D02*
X008692Y015909D01*
X008692Y016008D02*
X008302Y016008D01*
X008304Y016106D02*
X008692Y016106D01*
X008692Y016205D02*
X008307Y016205D01*
X008302Y016303D02*
X008692Y016303D01*
X008692Y016402D02*
X008302Y016402D01*
X008302Y016500D02*
X008692Y016500D01*
X008641Y016599D02*
X008302Y016599D01*
X008302Y016697D02*
X008586Y016697D01*
X008572Y016796D02*
X008302Y016796D01*
X008302Y016894D02*
X008572Y016894D01*
X008572Y016993D02*
X008302Y016993D01*
X008273Y017091D02*
X008572Y017091D01*
X008572Y017190D02*
X008195Y017190D01*
X008356Y015417D02*
X008935Y015417D01*
X009033Y015318D02*
X008455Y015318D01*
X008553Y015220D02*
X009132Y015220D01*
X009230Y015121D02*
X008652Y015121D01*
X008750Y015023D02*
X009329Y015023D01*
X009427Y014924D02*
X008849Y014924D01*
X008947Y014826D02*
X009526Y014826D01*
X009624Y014727D02*
X009046Y014727D01*
X009144Y014629D02*
X009723Y014629D01*
X009821Y014530D02*
X009243Y014530D01*
X009341Y014432D02*
X009920Y014432D01*
X010018Y014333D02*
X009440Y014333D01*
X009538Y014235D02*
X010117Y014235D01*
X010215Y014136D02*
X009637Y014136D01*
X009735Y014038D02*
X010314Y014038D01*
X010252Y013939D02*
X009834Y013939D01*
X008594Y012757D02*
X008516Y012757D01*
X008496Y012856D02*
X008417Y012856D01*
X008397Y012954D02*
X008319Y012954D01*
X008299Y013053D02*
X008220Y013053D01*
X008200Y013151D02*
X008122Y013151D01*
X008102Y013250D02*
X008023Y013250D01*
X008003Y013348D02*
X007925Y013348D01*
X007905Y013447D02*
X007826Y013447D01*
X007806Y013545D02*
X007728Y013545D01*
X007708Y013644D02*
X007629Y013644D01*
X007609Y013742D02*
X007531Y013742D01*
X007501Y013772D02*
X007501Y013772D01*
X007511Y013841D02*
X007432Y013841D01*
X007412Y013939D02*
X004477Y013939D01*
X007412Y013939D01*
X008614Y012659D02*
X008693Y012659D01*
X008713Y012560D02*
X008791Y012560D01*
X008811Y012462D02*
X008890Y012462D01*
X008910Y012363D02*
X008988Y012363D01*
X007017Y010984D02*
X006845Y010984D01*
X005322Y006552D02*
X004950Y006552D01*
X004852Y006453D02*
X005322Y006453D01*
X005322Y006355D02*
X004753Y006355D01*
X004655Y006256D02*
X005322Y006256D01*
X005322Y006158D02*
X004556Y006158D01*
X004458Y006059D02*
X005322Y006059D01*
X005322Y005961D02*
X004306Y005961D01*
X004302Y005862D02*
X005322Y005862D01*
X005322Y005764D02*
X004302Y005764D01*
X004302Y005665D02*
X004484Y005665D01*
X004492Y005680D02*
X004473Y005645D01*
X004462Y005607D01*
X004462Y004987D01*
X004762Y004987D01*
X004762Y005737D01*
X004593Y005737D01*
X004555Y005727D01*
X004520Y005707D01*
X004492Y005680D01*
X004462Y005567D02*
X004302Y005567D01*
X004302Y005468D02*
X004462Y005468D01*
X004462Y005370D02*
X004302Y005370D01*
X004302Y005271D02*
X004462Y005271D01*
X004462Y005173D02*
X004279Y005173D01*
X004210Y005074D02*
X004462Y005074D01*
X004462Y004877D02*
X001387Y004877D01*
X001387Y004779D02*
X004462Y004779D01*
X004462Y004680D02*
X001387Y004680D01*
X001387Y004582D02*
X004462Y004582D01*
X004462Y004483D02*
X001387Y004483D01*
X001387Y004385D02*
X004462Y004385D01*
X004462Y004286D02*
X001387Y004286D01*
X001387Y004188D02*
X004500Y004188D01*
X005125Y004188D02*
X006340Y004188D01*
X006322Y004286D02*
X005162Y004286D01*
X005162Y004385D02*
X006322Y004385D01*
X006322Y004483D02*
X005162Y004483D01*
X005162Y004582D02*
X006322Y004582D01*
X006322Y004680D02*
X005162Y004680D01*
X005162Y004779D02*
X006322Y004779D01*
X006322Y004877D02*
X005162Y004877D01*
X005162Y004987D02*
X004862Y004987D01*
X004862Y005737D01*
X005032Y005737D01*
X005070Y005727D01*
X005105Y005707D01*
X005132Y005680D01*
X005152Y005645D01*
X005162Y005607D01*
X005162Y004987D01*
X005162Y005074D02*
X005415Y005074D01*
X005346Y005173D02*
X005162Y005173D01*
X005162Y005271D02*
X005322Y005271D01*
X005322Y005370D02*
X005162Y005370D01*
X005162Y005468D02*
X005322Y005468D01*
X005322Y005567D02*
X005162Y005567D01*
X005141Y005665D02*
X005322Y005665D01*
X004862Y005665D02*
X004762Y005665D01*
X004762Y005567D02*
X004862Y005567D01*
X004862Y005468D02*
X004762Y005468D01*
X004762Y005370D02*
X004862Y005370D01*
X004862Y005271D02*
X004762Y005271D01*
X004762Y005173D02*
X004862Y005173D01*
X004862Y005074D02*
X004762Y005074D01*
X004862Y004976D02*
X006322Y004976D01*
X006322Y005074D02*
X006210Y005074D01*
X006279Y005173D02*
X006322Y005173D01*
X006322Y005271D02*
X006302Y005271D01*
X006302Y005370D02*
X006322Y005370D01*
X006322Y005468D02*
X006302Y005468D01*
X006302Y005567D02*
X006322Y005567D01*
X006331Y005665D02*
X006302Y005665D01*
X006302Y005764D02*
X006379Y005764D01*
X006400Y004089D02*
X001387Y004089D01*
X001387Y003991D02*
X007911Y003991D01*
X007813Y003892D02*
X001387Y003892D01*
X001387Y003794D02*
X007714Y003794D01*
X016307Y012227D02*
X016307Y012761D01*
X016251Y012897D01*
X016147Y013001D01*
X015920Y013228D01*
X015784Y013285D01*
X013812Y013285D01*
X013812Y013442D01*
X015511Y013442D01*
X015647Y013499D01*
X016211Y014062D01*
X016914Y014062D01*
X016624Y013772D01*
X016567Y013636D01*
X016567Y013489D01*
X016567Y012031D01*
X016538Y012101D01*
X016457Y012183D01*
X016350Y012227D01*
X016307Y012227D01*
X016307Y012265D02*
X016567Y012265D01*
X016567Y012363D02*
X016307Y012363D01*
X016307Y012462D02*
X016567Y012462D01*
X016567Y012560D02*
X016307Y012560D01*
X016307Y012659D02*
X016567Y012659D01*
X016567Y012757D02*
X016307Y012757D01*
X016268Y012856D02*
X016567Y012856D01*
X016567Y012954D02*
X016194Y012954D01*
X016095Y013053D02*
X016567Y013053D01*
X016567Y013151D02*
X015997Y013151D01*
X015868Y013250D02*
X016567Y013250D01*
X016567Y013348D02*
X013812Y013348D01*
X015133Y014235D02*
X015337Y014235D01*
X015435Y014333D02*
X015232Y014333D01*
X015330Y014432D02*
X015534Y014432D01*
X015632Y014530D02*
X015429Y014530D01*
X015512Y014629D02*
X015697Y014629D01*
X015697Y014727D02*
X015553Y014727D01*
X015557Y014826D02*
X015697Y014826D01*
X015697Y014924D02*
X015557Y014924D01*
X015557Y015023D02*
X015697Y015023D01*
X015697Y015121D02*
X015557Y015121D01*
X015557Y015220D02*
X015697Y015220D01*
X015697Y015318D02*
X015557Y015318D01*
X015557Y015417D02*
X015697Y015417D01*
X015697Y015515D02*
X015640Y015515D01*
X015677Y015614D02*
X015697Y015614D01*
X015697Y015712D02*
X015677Y015712D01*
X015677Y015811D02*
X015697Y015811D01*
X015697Y015909D02*
X015677Y015909D01*
X015677Y016008D02*
X015697Y016008D01*
X015677Y016106D02*
X015733Y016106D01*
X015677Y016205D02*
X015820Y016205D01*
X015677Y016303D02*
X017137Y016303D01*
X017137Y016262D02*
X016837Y016262D01*
X016837Y015643D01*
X016848Y015605D01*
X016867Y015570D01*
X016895Y015542D01*
X016930Y015523D01*
X016968Y015512D01*
X017137Y015512D01*
X017137Y016262D01*
X017237Y016262D01*
X017237Y015512D01*
X017407Y015512D01*
X017445Y015523D01*
X017480Y015542D01*
X017507Y015570D01*
X017527Y015605D01*
X017537Y015643D01*
X017537Y016262D01*
X017237Y016262D01*
X017237Y016362D01*
X017137Y016362D01*
X017137Y016262D01*
X017137Y016205D02*
X017237Y016205D01*
X017237Y016303D02*
X019385Y016303D01*
X019385Y016205D02*
X018555Y016205D01*
X018642Y016106D02*
X019385Y016106D01*
X019385Y016008D02*
X018677Y016008D01*
X018677Y015909D02*
X019385Y015909D01*
X019385Y015811D02*
X018677Y015811D01*
X018677Y015712D02*
X019385Y015712D01*
X019385Y015614D02*
X018677Y015614D01*
X018677Y015515D02*
X019385Y015515D01*
X019385Y015417D02*
X018677Y015417D01*
X018677Y015318D02*
X019385Y015318D01*
X019385Y015220D02*
X018677Y015220D01*
X018677Y015121D02*
X019385Y015121D01*
X019385Y015023D02*
X018677Y015023D01*
X018677Y014924D02*
X019385Y014924D01*
X019385Y014826D02*
X018677Y014826D01*
X018677Y014727D02*
X019385Y014727D01*
X019385Y014629D02*
X018677Y014629D01*
X018647Y014530D02*
X019385Y014530D01*
X019385Y014432D02*
X018567Y014432D01*
X018232Y014333D02*
X019385Y014333D01*
X019385Y014235D02*
X018133Y014235D01*
X018035Y014136D02*
X019385Y014136D01*
X019385Y014062D02*
X019385Y001387D01*
X016842Y001387D01*
X017285Y001830D01*
X017347Y001981D01*
X017347Y002369D01*
X017704Y002369D01*
X017810Y002413D01*
X017892Y002495D01*
X017936Y002602D01*
X017936Y003583D01*
X017892Y003690D01*
X017810Y003771D01*
X017704Y003815D01*
X017387Y003815D01*
X017387Y004892D01*
X017423Y004928D01*
X017467Y005035D01*
X017467Y005035D01*
X017468Y005035D01*
X017487Y005000D01*
X017515Y004972D01*
X017549Y004953D01*
X017588Y004943D01*
X017797Y004943D01*
X017797Y005482D01*
X017897Y005482D01*
X017897Y004943D01*
X018107Y004943D01*
X018145Y004953D01*
X018179Y004972D01*
X018207Y005000D01*
X018227Y005035D01*
X018237Y005073D01*
X018237Y005482D01*
X017897Y005482D01*
X017897Y005582D01*
X018237Y005582D01*
X018237Y005992D01*
X018227Y006030D01*
X018207Y006065D01*
X018179Y006092D01*
X018145Y006112D01*
X018107Y006122D01*
X017897Y006122D01*
X017897Y005582D01*
X017797Y005582D01*
X017797Y006122D01*
X017588Y006122D01*
X017549Y006112D01*
X017515Y006092D01*
X017487Y006065D01*
X017468Y006030D01*
X017467Y006030D01*
X017423Y006137D01*
X017342Y006218D01*
X017235Y006262D01*
X016640Y006262D01*
X016533Y006218D01*
X016482Y006168D01*
X016462Y006188D01*
X016591Y006317D01*
X016761Y006317D01*
X016897Y006374D01*
X017001Y006478D01*
X017300Y006776D01*
X018112Y006776D01*
X018219Y006820D01*
X018300Y006902D01*
X018345Y007009D01*
X018345Y008128D01*
X018300Y008235D01*
X018219Y008316D01*
X018112Y008360D01*
X017013Y008360D01*
X016906Y008316D01*
X016824Y008235D01*
X016807Y008193D01*
X016807Y009659D01*
X016920Y009772D01*
X016920Y009606D01*
X017512Y009606D01*
X017512Y009506D01*
X017612Y009506D01*
X017612Y008905D01*
X018074Y008905D01*
X018112Y008915D01*
X018147Y008934D01*
X018175Y008962D01*
X018194Y008997D01*
X018205Y009035D01*
X018205Y009506D01*
X017612Y009506D01*
X017612Y009606D01*
X018205Y009606D01*
X018205Y010078D01*
X018194Y010116D01*
X018175Y010151D01*
X018147Y010178D01*
X018112Y010198D01*
X018074Y010208D01*
X017612Y010208D01*
X017612Y009606D01*
X017512Y009606D01*
X017512Y010208D01*
X017295Y010208D01*
X017307Y010239D01*
X017307Y010886D01*
X017251Y011022D01*
X017211Y011062D01*
X017251Y011103D01*
X017307Y011239D01*
X017307Y013409D01*
X017961Y014062D01*
X019385Y014062D01*
X019385Y014038D02*
X017936Y014038D01*
X019385Y014038D01*
X019385Y013939D02*
X017838Y013939D01*
X019385Y013939D01*
X019385Y013841D02*
X017739Y013841D01*
X017641Y013742D02*
X019385Y013742D01*
X019385Y013644D02*
X017542Y013644D01*
X017444Y013545D02*
X019385Y013545D01*
X019385Y013447D02*
X017345Y013447D01*
X017307Y013348D02*
X019385Y013348D01*
X019385Y013250D02*
X017307Y013250D01*
X017307Y013151D02*
X019385Y013151D01*
X019385Y013053D02*
X017307Y013053D01*
X017307Y012954D02*
X019385Y012954D01*
X019385Y012856D02*
X017307Y012856D01*
X017307Y012757D02*
X019385Y012757D01*
X019385Y012659D02*
X017307Y012659D01*
X017307Y012560D02*
X019385Y012560D01*
X019385Y012462D02*
X017307Y012462D01*
X017307Y012363D02*
X019385Y012363D01*
X019385Y012265D02*
X017307Y012265D01*
X017307Y012166D02*
X019385Y012166D01*
X019385Y012068D02*
X017307Y012068D01*
X017307Y011969D02*
X019385Y011969D01*
X019385Y011871D02*
X017307Y011871D01*
X017307Y011772D02*
X019385Y011772D01*
X019385Y011674D02*
X017307Y011674D01*
X017307Y011575D02*
X019385Y011575D01*
X019385Y011477D02*
X017307Y011477D01*
X017307Y011378D02*
X019385Y011378D01*
X019385Y011280D02*
X017307Y011280D01*
X017284Y011181D02*
X019385Y011181D01*
X019385Y011083D02*
X017231Y011083D01*
X017267Y010984D02*
X019385Y010984D01*
X019385Y010886D02*
X017307Y010886D01*
X017307Y010787D02*
X019385Y010787D01*
X019385Y010689D02*
X017307Y010689D01*
X017307Y010590D02*
X019385Y010590D01*
X019385Y010492D02*
X017307Y010492D01*
X017307Y010393D02*
X019385Y010393D01*
X019385Y010295D02*
X017307Y010295D01*
X017512Y010196D02*
X017612Y010196D01*
X017612Y010098D02*
X017512Y010098D01*
X017512Y009999D02*
X017612Y009999D01*
X017612Y009901D02*
X017512Y009901D01*
X017512Y009802D02*
X017612Y009802D01*
X017612Y009704D02*
X017512Y009704D01*
X017512Y009605D02*
X016807Y009605D01*
X016807Y009507D02*
X017512Y009507D01*
X017512Y009506D02*
X016920Y009506D01*
X016920Y009035D01*
X016930Y008997D01*
X016950Y008962D01*
X016978Y008934D01*
X017012Y008915D01*
X017051Y008905D01*
X017512Y008905D01*
X017512Y009506D01*
X017512Y009408D02*
X017612Y009408D01*
X017612Y009310D02*
X017512Y009310D01*
X017512Y009211D02*
X017612Y009211D01*
X017612Y009113D02*
X017512Y009113D01*
X017512Y009014D02*
X017612Y009014D01*
X017612Y008916D02*
X017512Y008916D01*
X017010Y008916D02*
X016807Y008916D01*
X016807Y009014D02*
X016926Y009014D01*
X016920Y009113D02*
X016807Y009113D01*
X016807Y009211D02*
X016920Y009211D01*
X016920Y009310D02*
X016807Y009310D01*
X016807Y009408D02*
X016920Y009408D01*
X016920Y009704D02*
X016852Y009704D01*
X017612Y009605D02*
X019385Y009605D01*
X019385Y009507D02*
X017612Y009507D01*
X018205Y009408D02*
X019385Y009408D01*
X019385Y009310D02*
X018205Y009310D01*
X018205Y009211D02*
X019385Y009211D01*
X019385Y009113D02*
X018205Y009113D01*
X018199Y009014D02*
X019385Y009014D01*
X019385Y008916D02*
X018114Y008916D01*
X018198Y008325D02*
X019385Y008325D01*
X019385Y008423D02*
X016807Y008423D01*
X016807Y008325D02*
X016927Y008325D01*
X016821Y008226D02*
X016807Y008226D01*
X016807Y008522D02*
X019385Y008522D01*
X019385Y008620D02*
X016807Y008620D01*
X016807Y008719D02*
X019385Y008719D01*
X019385Y008817D02*
X016807Y008817D01*
X018205Y009704D02*
X019385Y009704D01*
X019385Y009802D02*
X018205Y009802D01*
X018205Y009901D02*
X019385Y009901D01*
X019385Y009999D02*
X018205Y009999D01*
X018199Y010098D02*
X019385Y010098D01*
X019385Y010196D02*
X018116Y010196D01*
X016567Y012068D02*
X016552Y012068D01*
X016567Y012166D02*
X016473Y012166D01*
X016567Y013447D02*
X015522Y013447D01*
X015694Y013545D02*
X016567Y013545D01*
X016571Y013644D02*
X015792Y013644D01*
X015891Y013742D02*
X016611Y013742D01*
X016693Y013841D02*
X015989Y013841D01*
X016088Y013939D02*
X016791Y013939D01*
X016088Y013939D01*
X016186Y014038D02*
X016890Y014038D01*
X016186Y014038D01*
X016285Y014136D02*
X016988Y014136D01*
X017087Y014235D02*
X016383Y014235D01*
X016482Y014333D02*
X017185Y014333D01*
X017284Y014432D02*
X016567Y014432D01*
X016647Y014530D02*
X017382Y014530D01*
X017481Y014629D02*
X016677Y014629D01*
X016677Y014727D02*
X017579Y014727D01*
X017678Y014826D02*
X016677Y014826D01*
X016677Y014924D02*
X017697Y014924D01*
X017697Y015023D02*
X016677Y015023D01*
X016677Y015121D02*
X017697Y015121D01*
X017697Y015220D02*
X016677Y015220D01*
X016677Y015318D02*
X017697Y015318D01*
X017697Y015417D02*
X016677Y015417D01*
X016677Y015515D02*
X016956Y015515D01*
X016845Y015614D02*
X016677Y015614D01*
X016677Y015712D02*
X016837Y015712D01*
X016837Y015811D02*
X016677Y015811D01*
X016677Y015909D02*
X016837Y015909D01*
X016837Y016008D02*
X016677Y016008D01*
X016642Y016106D02*
X016837Y016106D01*
X016837Y016205D02*
X016555Y016205D01*
X016837Y016362D02*
X017137Y016362D01*
X017137Y017112D01*
X016968Y017112D01*
X016930Y017102D01*
X016895Y017082D01*
X016867Y017055D01*
X016848Y017020D01*
X016837Y016982D01*
X016837Y016362D01*
X016837Y016402D02*
X015677Y016402D01*
X015677Y016500D02*
X016837Y016500D01*
X016837Y016599D02*
X015677Y016599D01*
X015677Y016697D02*
X016837Y016697D01*
X016837Y016796D02*
X015677Y016796D01*
X015677Y016894D02*
X016837Y016894D01*
X016840Y016993D02*
X015677Y016993D01*
X015648Y017091D02*
X016911Y017091D01*
X017137Y017091D02*
X017237Y017091D01*
X017237Y017112D02*
X017237Y016362D01*
X017537Y016362D01*
X017537Y016982D01*
X017527Y017020D01*
X017507Y017055D01*
X017480Y017082D01*
X017445Y017102D01*
X017407Y017112D01*
X017237Y017112D01*
X017237Y016993D02*
X017137Y016993D01*
X017137Y016894D02*
X017237Y016894D01*
X017237Y016796D02*
X017137Y016796D01*
X017137Y016697D02*
X017237Y016697D01*
X017237Y016599D02*
X017137Y016599D01*
X017137Y016500D02*
X017237Y016500D01*
X017237Y016402D02*
X017137Y016402D01*
X017137Y016106D02*
X017237Y016106D01*
X017237Y016008D02*
X017137Y016008D01*
X017137Y015909D02*
X017237Y015909D01*
X017237Y015811D02*
X017137Y015811D01*
X017137Y015712D02*
X017237Y015712D01*
X017237Y015614D02*
X017137Y015614D01*
X017137Y015515D02*
X017237Y015515D01*
X017418Y015515D02*
X017697Y015515D01*
X017697Y015614D02*
X017530Y015614D01*
X017537Y015712D02*
X017697Y015712D01*
X017697Y015811D02*
X017537Y015811D01*
X017537Y015909D02*
X017697Y015909D01*
X017697Y016008D02*
X017537Y016008D01*
X017537Y016106D02*
X017733Y016106D01*
X017820Y016205D02*
X017537Y016205D01*
X017537Y016402D02*
X019385Y016402D01*
X019385Y016500D02*
X017537Y016500D01*
X017537Y016599D02*
X019385Y016599D01*
X019385Y016697D02*
X017537Y016697D01*
X017537Y016796D02*
X019385Y016796D01*
X019385Y016894D02*
X017537Y016894D01*
X017535Y016993D02*
X019385Y016993D01*
X019385Y017091D02*
X017464Y017091D01*
X015570Y017190D02*
X019385Y017190D01*
X019385Y017288D02*
X012427Y017288D01*
X012427Y017190D02*
X012628Y017190D01*
X012617Y017180D02*
X012598Y017145D01*
X012587Y017107D01*
X012587Y016487D01*
X012887Y016487D01*
X012887Y017237D01*
X012718Y017237D01*
X012680Y017227D01*
X012645Y017207D01*
X012617Y017180D01*
X012587Y017091D02*
X012427Y017091D01*
X012427Y016993D02*
X012587Y016993D01*
X012587Y016894D02*
X012427Y016894D01*
X012427Y016796D02*
X012587Y016796D01*
X012587Y016697D02*
X012414Y016697D01*
X012359Y016599D02*
X012587Y016599D01*
X012587Y016500D02*
X012307Y016500D01*
X012307Y016402D02*
X012887Y016402D01*
X012887Y016500D02*
X012987Y016500D01*
X012987Y016487D02*
X012987Y017237D01*
X013157Y017237D01*
X013195Y017227D01*
X013230Y017207D01*
X013257Y017180D01*
X013277Y017145D01*
X013287Y017107D01*
X013287Y016487D01*
X012987Y016487D01*
X012987Y016402D02*
X014697Y016402D01*
X014697Y016500D02*
X013287Y016500D01*
X013287Y016599D02*
X014697Y016599D01*
X014697Y016697D02*
X013287Y016697D01*
X013287Y016796D02*
X014697Y016796D01*
X014697Y016894D02*
X013287Y016894D01*
X013287Y016993D02*
X014697Y016993D01*
X014727Y017091D02*
X013287Y017091D01*
X013247Y017190D02*
X014805Y017190D01*
X014697Y016303D02*
X013287Y016303D01*
X013287Y016205D02*
X013820Y016205D01*
X013733Y016106D02*
X013287Y016106D01*
X013287Y016008D02*
X013697Y016008D01*
X013697Y015909D02*
X013287Y015909D01*
X013287Y015811D02*
X013697Y015811D01*
X013697Y015712D02*
X013267Y015712D01*
X012607Y015712D02*
X011986Y015712D01*
X011900Y015614D02*
X012216Y015614D01*
X012117Y015515D02*
X011900Y015515D01*
X011900Y015417D02*
X012019Y015417D01*
X011920Y015318D02*
X011900Y015318D01*
X012084Y015811D02*
X012587Y015811D01*
X012587Y015909D02*
X012183Y015909D01*
X012264Y016008D02*
X012587Y016008D01*
X012587Y016106D02*
X012304Y016106D01*
X012307Y016205D02*
X012587Y016205D01*
X012587Y016303D02*
X012307Y016303D01*
X012887Y016599D02*
X012987Y016599D01*
X012987Y016697D02*
X012887Y016697D01*
X012887Y016796D02*
X012987Y016796D01*
X012987Y016894D02*
X012887Y016894D01*
X012887Y016993D02*
X012987Y016993D01*
X012987Y017091D02*
X012887Y017091D01*
X012887Y017190D02*
X012987Y017190D01*
X012427Y017387D02*
X019385Y017387D01*
X019385Y017485D02*
X012427Y017485D01*
X012427Y017584D02*
X019385Y017584D01*
X019385Y017682D02*
X012427Y017682D01*
X012427Y017781D02*
X019385Y017781D01*
X019385Y017879D02*
X012427Y017879D01*
X012427Y017978D02*
X019385Y017978D01*
X019385Y018076D02*
X012427Y018076D01*
X012415Y018175D02*
X019385Y018175D01*
X019385Y018273D02*
X012361Y018273D01*
X012208Y018372D02*
X019385Y018372D01*
X019385Y018470D02*
X011928Y018470D01*
X011829Y018569D02*
X019385Y018569D01*
X019385Y018667D02*
X011731Y018667D01*
X011611Y018766D02*
X019385Y018766D01*
X019385Y018864D02*
X001387Y018864D01*
X001387Y018963D02*
X019385Y018963D01*
X019385Y019061D02*
X001387Y019061D01*
X001387Y019160D02*
X019385Y019160D01*
X019385Y019258D02*
X001387Y019258D01*
X001387Y019357D02*
X019385Y019357D01*
X014817Y015417D02*
X014677Y015417D01*
X014677Y015515D02*
X014734Y015515D01*
X014697Y015614D02*
X014677Y015614D01*
X014677Y015712D02*
X014697Y015712D01*
X014697Y015811D02*
X014677Y015811D01*
X014677Y015909D02*
X014697Y015909D01*
X014697Y016008D02*
X014677Y016008D01*
X014697Y016106D02*
X014642Y016106D01*
X014697Y016205D02*
X014555Y016205D01*
X014677Y015318D02*
X014817Y015318D01*
X014817Y015220D02*
X014677Y015220D01*
X014677Y015121D02*
X014817Y015121D01*
X014817Y015023D02*
X014677Y015023D01*
X014677Y014924D02*
X014776Y014924D01*
X018304Y008226D02*
X019385Y008226D01*
X019385Y008128D02*
X018345Y008128D01*
X018345Y008029D02*
X019385Y008029D01*
X019385Y007931D02*
X018345Y007931D01*
X018345Y007832D02*
X019385Y007832D01*
X019385Y007734D02*
X018345Y007734D01*
X018345Y007635D02*
X019385Y007635D01*
X019385Y007537D02*
X018345Y007537D01*
X018345Y007438D02*
X019385Y007438D01*
X019385Y007340D02*
X018345Y007340D01*
X018345Y007241D02*
X019385Y007241D01*
X019385Y007143D02*
X018345Y007143D01*
X018345Y007044D02*
X019385Y007044D01*
X019385Y006946D02*
X018319Y006946D01*
X018246Y006847D02*
X019385Y006847D01*
X019385Y006749D02*
X017272Y006749D01*
X017174Y006650D02*
X019385Y006650D01*
X019385Y006552D02*
X017075Y006552D01*
X017001Y006478D02*
X017001Y006478D01*
X016977Y006453D02*
X019385Y006453D01*
X019385Y006355D02*
X016852Y006355D01*
X016625Y006256D02*
X016530Y006256D01*
X017250Y006256D02*
X019385Y006256D01*
X019385Y006158D02*
X017402Y006158D01*
X017455Y006059D02*
X017484Y006059D01*
X017467Y006030D02*
X017467Y006030D01*
X017797Y006059D02*
X017897Y006059D01*
X017897Y005961D02*
X017797Y005961D01*
X017797Y005862D02*
X017897Y005862D01*
X017897Y005764D02*
X017797Y005764D01*
X017797Y005665D02*
X017897Y005665D01*
X017897Y005567D02*
X019385Y005567D01*
X019385Y005665D02*
X018237Y005665D01*
X018237Y005764D02*
X019385Y005764D01*
X019385Y005862D02*
X018237Y005862D01*
X018237Y005961D02*
X019385Y005961D01*
X019385Y006059D02*
X018210Y006059D01*
X018237Y005468D02*
X019385Y005468D01*
X019385Y005370D02*
X018237Y005370D01*
X018237Y005271D02*
X019385Y005271D01*
X019385Y005173D02*
X018237Y005173D01*
X018237Y005074D02*
X019385Y005074D01*
X019385Y004976D02*
X018183Y004976D01*
X017897Y004976D02*
X017797Y004976D01*
X017797Y005074D02*
X017897Y005074D01*
X017897Y005173D02*
X017797Y005173D01*
X017797Y005271D02*
X017897Y005271D01*
X017897Y005370D02*
X017797Y005370D01*
X017797Y005468D02*
X017897Y005468D01*
X017512Y004976D02*
X017443Y004976D01*
X017387Y004877D02*
X019385Y004877D01*
X019385Y004779D02*
X017387Y004779D01*
X017387Y004680D02*
X019385Y004680D01*
X019385Y004582D02*
X017387Y004582D01*
X017387Y004483D02*
X019385Y004483D01*
X019385Y004385D02*
X017387Y004385D01*
X017387Y004286D02*
X019385Y004286D01*
X019385Y004188D02*
X017387Y004188D01*
X017387Y004089D02*
X019385Y004089D01*
X019385Y003991D02*
X017387Y003991D01*
X017387Y003892D02*
X019385Y003892D01*
X019385Y003794D02*
X017756Y003794D01*
X017886Y003695D02*
X019385Y003695D01*
X019385Y003597D02*
X017930Y003597D01*
X017936Y003498D02*
X019385Y003498D01*
X019385Y003400D02*
X017936Y003400D01*
X017936Y003301D02*
X019385Y003301D01*
X019385Y003203D02*
X017936Y003203D01*
X017936Y003104D02*
X019385Y003104D01*
X019385Y003006D02*
X017936Y003006D01*
X017936Y002907D02*
X019385Y002907D01*
X019385Y002809D02*
X017936Y002809D01*
X017936Y002710D02*
X019385Y002710D01*
X019385Y002612D02*
X017936Y002612D01*
X017900Y002513D02*
X019385Y002513D01*
X019385Y002415D02*
X017812Y002415D01*
X017347Y002316D02*
X019385Y002316D01*
X019385Y002218D02*
X017347Y002218D01*
X017347Y002119D02*
X019385Y002119D01*
X019385Y002021D02*
X017347Y002021D01*
X017323Y001922D02*
X019385Y001922D01*
X019385Y001824D02*
X017279Y001824D01*
X017180Y001725D02*
X019385Y001725D01*
X019385Y001627D02*
X017082Y001627D01*
X016983Y001528D02*
X019385Y001528D01*
X019385Y001430D02*
X016885Y001430D01*
D25*
X016937Y003092D02*
X016937Y005532D01*
M02*
