G75*
%MOIN*%
%OFA0B0*%
%FSLAX24Y24*%
%IPPOS*%
%LPD*%
%AMOC8*
5,1,8,0,0,1.08239X$1,22.5*
%
%ADD10C,0.0100*%
%ADD11C,0.0050*%
%ADD12C,0.0060*%
%ADD13C,0.0080*%
D10*
X002152Y002218D02*
X002465Y002218D01*
X002344Y002119D02*
X002251Y002119D01*
X002293Y002077D02*
X002077Y002293D01*
X002334Y002607D01*
X002288Y002690D01*
X002251Y002778D01*
X002225Y002869D01*
X001822Y002910D01*
X001822Y003215D01*
X002225Y003256D01*
X002251Y003347D01*
X002288Y003435D01*
X002334Y003518D01*
X002077Y003832D01*
X002293Y004047D01*
X002607Y003791D01*
X002690Y003837D01*
X002778Y003873D01*
X002869Y003900D01*
X002910Y004303D01*
X003215Y004303D01*
X003256Y003900D01*
X003347Y003873D01*
X003435Y003837D01*
X003518Y003791D01*
X003832Y004047D01*
X004047Y003832D01*
X003791Y003518D01*
X003837Y003435D01*
X003873Y003347D01*
X003900Y003256D01*
X004303Y003215D01*
X004303Y002910D01*
X003900Y002869D01*
X003873Y002778D01*
X003837Y002690D01*
X003791Y002607D01*
X004047Y002293D01*
X003832Y002077D01*
X003518Y002334D01*
X003456Y002298D01*
X003391Y002268D01*
X003212Y002702D01*
X003277Y002736D01*
X003334Y002782D01*
X003382Y002837D01*
X003418Y002901D01*
X003442Y002970D01*
X003453Y003042D01*
X003449Y003116D01*
X003433Y003187D01*
X003403Y003254D01*
X003361Y003314D01*
X003309Y003365D01*
X003248Y003406D01*
X003181Y003435D01*
X003109Y003450D01*
X003036Y003452D01*
X002963Y003440D01*
X002895Y003415D01*
X002832Y003378D01*
X002777Y003329D01*
X002732Y003271D01*
X002699Y003206D01*
X002679Y003135D01*
X002672Y003062D01*
X002677Y002997D01*
X002694Y002933D01*
X002721Y002873D01*
X002757Y002819D01*
X002802Y002771D01*
X002855Y002732D01*
X002913Y002702D01*
X002734Y002268D01*
X002669Y002298D01*
X002607Y002334D01*
X002293Y002077D01*
X002097Y002316D02*
X002586Y002316D01*
X002637Y002316D02*
X002753Y002316D01*
X002794Y002415D02*
X002177Y002415D01*
X002257Y002513D02*
X002835Y002513D01*
X002876Y002612D02*
X002331Y002612D01*
X002279Y002710D02*
X002896Y002710D01*
X002766Y002809D02*
X002242Y002809D01*
X001848Y002907D02*
X002705Y002907D01*
X002677Y003006D02*
X001822Y003006D01*
X001822Y003104D02*
X002676Y003104D01*
X002698Y003203D02*
X001822Y003203D01*
X002238Y003301D02*
X002756Y003301D01*
X002869Y003400D02*
X002273Y003400D01*
X002323Y003498D02*
X003802Y003498D01*
X003851Y003400D02*
X003257Y003400D01*
X003370Y003301D02*
X003887Y003301D01*
X003856Y003597D02*
X002269Y003597D01*
X002189Y003695D02*
X003936Y003695D01*
X004016Y003794D02*
X003521Y003794D01*
X003513Y003794D02*
X002612Y003794D01*
X002604Y003794D02*
X002108Y003794D01*
X002138Y003892D02*
X002483Y003892D01*
X002362Y003991D02*
X002236Y003991D01*
X002844Y003892D02*
X003281Y003892D01*
X003246Y003991D02*
X002878Y003991D01*
X002888Y004089D02*
X003236Y004089D01*
X003226Y004188D02*
X002898Y004188D01*
X002908Y004286D02*
X003216Y004286D01*
X003642Y003892D02*
X003987Y003892D01*
X003888Y003991D02*
X003763Y003991D01*
X003426Y003203D02*
X004303Y003203D01*
X004303Y003104D02*
X003450Y003104D01*
X003447Y003006D02*
X004303Y003006D01*
X004277Y002907D02*
X003420Y002907D01*
X003357Y002809D02*
X003882Y002809D01*
X003845Y002710D02*
X003229Y002710D01*
X003249Y002612D02*
X003794Y002612D01*
X003868Y002513D02*
X003290Y002513D01*
X003331Y002415D02*
X003948Y002415D01*
X004028Y002316D02*
X003539Y002316D01*
X003488Y002316D02*
X003371Y002316D01*
X003660Y002218D02*
X003972Y002218D01*
X003874Y002119D02*
X003780Y002119D01*
D11*
X001662Y001337D02*
X001587Y001412D01*
X001662Y001337D02*
X001813Y001337D01*
X001888Y001412D01*
X001888Y001488D01*
X001813Y001563D01*
X001662Y001563D01*
X001587Y001638D01*
X001587Y001713D01*
X001662Y001788D01*
X001813Y001788D01*
X001888Y001713D01*
X002048Y001788D02*
X002348Y001337D01*
X002348Y001788D01*
X002508Y001788D02*
X002508Y001337D01*
X002808Y001337D01*
X002969Y001412D02*
X003044Y001337D01*
X003194Y001337D01*
X003269Y001412D01*
X003269Y001488D01*
X003194Y001563D01*
X003044Y001563D01*
X002969Y001638D01*
X002969Y001713D01*
X003044Y001788D01*
X003194Y001788D01*
X003269Y001713D01*
X003429Y001563D02*
X003429Y001412D01*
X003504Y001337D01*
X003654Y001337D01*
X003729Y001412D01*
X003729Y001563D01*
X003654Y001638D01*
X003504Y001638D01*
X003429Y001563D01*
X003889Y001788D02*
X004039Y001788D01*
X003964Y001788D02*
X003964Y001337D01*
X003889Y001337D02*
X004039Y001337D01*
X004196Y001337D02*
X004196Y001788D01*
X004421Y001788D01*
X004497Y001713D01*
X004497Y001563D01*
X004421Y001488D01*
X004196Y001488D01*
X002808Y001788D02*
X002508Y001788D01*
X002508Y001563D02*
X002658Y001563D01*
X002048Y001337D02*
X002048Y001788D01*
X002712Y005212D02*
X003013Y005212D01*
X002863Y005212D02*
X002863Y005663D01*
X002712Y005513D01*
X003812Y007917D02*
X003737Y007992D01*
X003737Y008142D01*
X003812Y008217D01*
X003812Y008377D02*
X003737Y008452D01*
X003737Y008602D01*
X003812Y008677D01*
X003887Y008677D01*
X004187Y008377D01*
X004187Y008677D01*
X004112Y008217D02*
X004187Y008142D01*
X004187Y007992D01*
X004112Y007917D01*
X003812Y007917D01*
X005512Y008962D02*
X005512Y011662D01*
X005812Y011662D02*
X005812Y008962D01*
X005512Y008962D02*
X005514Y008906D01*
X005520Y008851D01*
X005529Y008796D01*
X005543Y008742D01*
X005560Y008689D01*
X005581Y008638D01*
X005605Y008588D01*
X005633Y008540D01*
X005664Y008493D01*
X005698Y008449D01*
X005735Y008408D01*
X005775Y008369D01*
X005817Y008333D01*
X005862Y008301D01*
X006762Y008301D02*
X006807Y008333D01*
X006849Y008369D01*
X006889Y008408D01*
X006926Y008450D01*
X006960Y008493D01*
X006991Y008540D01*
X007019Y008588D01*
X007043Y008638D01*
X007064Y008689D01*
X007081Y008742D01*
X007095Y008796D01*
X007104Y008851D01*
X007110Y008906D01*
X007112Y008962D01*
X007112Y011662D01*
X006812Y011662D02*
X006812Y008962D01*
X006811Y008924D01*
X006806Y008887D01*
X006799Y008850D01*
X006790Y008814D01*
X006777Y008778D01*
X006762Y008744D01*
X005862Y008744D02*
X005847Y008778D01*
X005834Y008814D01*
X005825Y008850D01*
X005818Y008887D01*
X005813Y008924D01*
X005812Y008962D01*
X005037Y009712D02*
X005112Y009787D01*
X005112Y009938D01*
X005037Y010013D01*
X004737Y010013D01*
X004662Y009938D01*
X004662Y009787D01*
X004737Y009712D01*
X005037Y009712D01*
X004962Y009863D02*
X005112Y010013D01*
X005112Y010173D02*
X005112Y010473D01*
X005112Y010323D02*
X004662Y010323D01*
X004812Y010173D01*
X004137Y011462D02*
X003837Y011462D01*
X003762Y011537D01*
X003762Y011688D01*
X003837Y011763D01*
X003912Y011923D02*
X003762Y012073D01*
X004212Y012073D01*
X004212Y011923D02*
X004212Y012223D01*
X004137Y011763D02*
X004212Y011688D01*
X004212Y011537D01*
X004137Y011462D01*
X003648Y013037D02*
X003498Y013037D01*
X003423Y013112D01*
X003263Y013037D02*
X003113Y013188D01*
X003188Y013188D02*
X002962Y013188D01*
X002962Y013037D02*
X002962Y013488D01*
X003188Y013488D01*
X003263Y013413D01*
X003263Y013263D01*
X003188Y013188D01*
X003423Y013413D02*
X003498Y013488D01*
X003648Y013488D01*
X003723Y013413D01*
X003723Y013338D01*
X003648Y013263D01*
X003723Y013188D01*
X003723Y013112D01*
X003648Y013037D01*
X003648Y013263D02*
X003573Y013263D01*
X003138Y015587D02*
X002837Y015587D01*
X002988Y015587D02*
X002988Y016038D01*
X002837Y015888D01*
X002912Y017337D02*
X002837Y017412D01*
X002912Y017337D02*
X003063Y017337D01*
X003138Y017412D01*
X003138Y017488D01*
X003063Y017563D01*
X002912Y017563D01*
X002837Y017638D01*
X002837Y017713D01*
X002912Y017788D01*
X003063Y017788D01*
X003138Y017713D01*
X003298Y017788D02*
X003598Y017337D01*
X003598Y017788D01*
X003758Y017788D02*
X003758Y017337D01*
X004058Y017337D01*
X004219Y017412D02*
X004294Y017337D01*
X004444Y017337D01*
X004519Y017412D01*
X004519Y017488D01*
X004444Y017563D01*
X004294Y017563D01*
X004219Y017638D01*
X004219Y017713D01*
X004294Y017788D01*
X004444Y017788D01*
X004519Y017713D01*
X004058Y017788D02*
X003758Y017788D01*
X003758Y017563D02*
X003908Y017563D01*
X003298Y017337D02*
X003298Y017788D01*
X005139Y017638D02*
X005139Y017187D01*
X005139Y017337D02*
X005365Y017337D01*
X005440Y017412D01*
X005440Y017563D01*
X005365Y017638D01*
X005139Y017638D01*
X005600Y017563D02*
X005600Y017412D01*
X005675Y017337D01*
X005825Y017337D01*
X005900Y017412D01*
X005900Y017563D01*
X005825Y017638D01*
X005675Y017638D01*
X005600Y017563D01*
X006060Y017638D02*
X006060Y017337D01*
X006060Y017488D02*
X006210Y017638D01*
X006285Y017638D01*
X006444Y017638D02*
X006594Y017638D01*
X006519Y017713D02*
X006519Y017412D01*
X006594Y017337D01*
X006751Y017337D02*
X007051Y017337D01*
X006901Y017337D02*
X006901Y017788D01*
X006751Y017638D01*
X007432Y015163D02*
X007733Y014712D01*
X007893Y014938D02*
X008193Y014938D01*
X008118Y015163D02*
X008118Y014712D01*
X007893Y014938D02*
X008118Y015163D01*
X007733Y015163D02*
X007432Y014712D01*
X005862Y012323D02*
X005817Y012291D01*
X005775Y012255D01*
X005735Y012216D01*
X005698Y012174D01*
X005664Y012131D01*
X005633Y012084D01*
X005605Y012036D01*
X005581Y011986D01*
X005560Y011935D01*
X005543Y011882D01*
X005529Y011828D01*
X005520Y011773D01*
X005514Y011718D01*
X005512Y011662D01*
X005812Y011662D02*
X005813Y011700D01*
X005818Y011737D01*
X005825Y011774D01*
X005834Y011810D01*
X005847Y011846D01*
X005862Y011880D01*
X006762Y011880D02*
X006777Y011846D01*
X006790Y011810D01*
X006799Y011774D01*
X006806Y011737D01*
X006811Y011700D01*
X006812Y011662D01*
X007112Y011662D02*
X007110Y011718D01*
X007104Y011773D01*
X007095Y011828D01*
X007081Y011882D01*
X007064Y011935D01*
X007043Y011986D01*
X007019Y012036D01*
X006991Y012084D01*
X006960Y012131D01*
X006926Y012175D01*
X006889Y012216D01*
X006849Y012255D01*
X006807Y012291D01*
X006762Y012323D01*
X006312Y010762D02*
X006312Y010562D01*
X006312Y010062D02*
X006312Y009862D01*
X010337Y006963D02*
X010337Y006662D01*
X010412Y006587D01*
X010563Y006587D01*
X010638Y006662D01*
X010638Y006813D01*
X010488Y006813D01*
X010638Y006963D02*
X010563Y007038D01*
X010412Y007038D01*
X010337Y006963D01*
X010798Y007038D02*
X010798Y006587D01*
X010798Y006738D02*
X011023Y006738D01*
X011098Y006813D01*
X011098Y006963D01*
X011023Y007038D01*
X010798Y007038D01*
X011258Y007038D02*
X011408Y007038D01*
X011333Y007038D02*
X011333Y006587D01*
X011258Y006587D02*
X011408Y006587D01*
X011565Y006662D02*
X011640Y006587D01*
X011790Y006587D01*
X011865Y006662D01*
X011865Y006963D01*
X011790Y007038D01*
X011640Y007038D01*
X011565Y006963D01*
X011565Y006662D01*
X011712Y008337D02*
X012013Y008788D01*
X012173Y008713D02*
X012173Y008638D01*
X012248Y008563D01*
X012398Y008563D01*
X012473Y008488D01*
X012473Y008412D01*
X012398Y008337D01*
X012248Y008337D01*
X012173Y008412D01*
X012173Y008488D01*
X012248Y008563D01*
X012398Y008563D02*
X012473Y008638D01*
X012473Y008713D01*
X012398Y008788D01*
X012248Y008788D01*
X012173Y008713D01*
X012013Y008337D02*
X011712Y008788D01*
X013787Y010667D02*
X013787Y010892D01*
X013862Y010967D01*
X014012Y010967D01*
X014087Y010892D01*
X014087Y010667D01*
X014087Y010817D02*
X014237Y010967D01*
X014237Y011127D02*
X014237Y011427D01*
X014237Y011277D02*
X013787Y011277D01*
X013937Y011127D01*
X013787Y010667D02*
X014237Y010667D01*
X015337Y009413D02*
X015638Y008962D01*
X015798Y009037D02*
X015798Y009188D01*
X016023Y009188D01*
X016098Y009113D01*
X016098Y009037D01*
X016023Y008962D01*
X015873Y008962D01*
X015798Y009037D01*
X015798Y009188D02*
X015948Y009338D01*
X016098Y009413D01*
X015638Y009413D02*
X015337Y008962D01*
X015358Y007663D02*
X015133Y007663D01*
X015133Y007212D01*
X015358Y007212D01*
X015433Y007287D01*
X015433Y007588D01*
X015358Y007663D01*
X014973Y007663D02*
X014673Y007663D01*
X014673Y007212D01*
X014973Y007212D01*
X014823Y007438D02*
X014673Y007438D01*
X014513Y007212D02*
X014212Y007212D01*
X014212Y007663D01*
X016412Y010667D02*
X016412Y010892D01*
X016487Y010967D01*
X016637Y010967D01*
X016712Y010892D01*
X016712Y010667D01*
X016712Y010817D02*
X016862Y010967D01*
X016862Y011127D02*
X016562Y011427D01*
X016487Y011427D01*
X016412Y011352D01*
X016412Y011202D01*
X016487Y011127D01*
X016862Y011127D02*
X016862Y011427D01*
X016862Y010667D02*
X016412Y010667D01*
X018312Y008852D02*
X018387Y008927D01*
X018462Y008927D01*
X018537Y008852D01*
X018612Y008927D01*
X018687Y008927D01*
X018762Y008852D01*
X018762Y008702D01*
X018687Y008627D01*
X018687Y008467D02*
X018762Y008392D01*
X018762Y008242D01*
X018687Y008167D01*
X018387Y008167D01*
X018312Y008242D01*
X018312Y008392D01*
X018387Y008467D01*
X018387Y008627D02*
X018312Y008702D01*
X018312Y008852D01*
X018537Y008852D02*
X018537Y008777D01*
X018537Y004802D02*
X018462Y004727D01*
X018462Y004577D01*
X018537Y004502D01*
X018537Y004342D02*
X018462Y004267D01*
X018462Y004117D01*
X018537Y004042D01*
X018837Y004042D01*
X018912Y004117D01*
X018912Y004267D01*
X018837Y004342D01*
X018912Y004502D02*
X018612Y004802D01*
X018537Y004802D01*
X018912Y004802D02*
X018912Y004502D01*
X018912Y003885D02*
X018912Y003735D01*
X018912Y003810D02*
X018462Y003810D01*
X018462Y003735D02*
X018462Y003885D01*
X018484Y001788D02*
X018634Y001788D01*
X018709Y001713D01*
X018409Y001412D01*
X018484Y001337D01*
X018634Y001337D01*
X018709Y001412D01*
X018709Y001713D01*
X018870Y001713D02*
X018945Y001788D01*
X019095Y001788D01*
X019170Y001713D01*
X019170Y001638D01*
X018870Y001337D01*
X019170Y001337D01*
X018409Y001412D02*
X018409Y001713D01*
X018484Y001788D01*
X017794Y001412D02*
X017794Y001337D01*
X017719Y001337D01*
X017719Y001412D01*
X017794Y001412D01*
X017558Y001638D02*
X017408Y001337D01*
X017258Y001638D01*
X017098Y001563D02*
X017098Y001488D01*
X016798Y001488D01*
X016798Y001563D02*
X016873Y001638D01*
X017023Y001638D01*
X017098Y001563D01*
X017023Y001337D02*
X016873Y001337D01*
X016798Y001412D01*
X016798Y001563D01*
X016638Y001563D02*
X016563Y001488D01*
X016337Y001488D01*
X016488Y001488D02*
X016638Y001337D01*
X016638Y001563D02*
X016638Y001713D01*
X016563Y001788D01*
X016337Y001788D01*
X016337Y001337D01*
X015098Y003462D02*
X014798Y003462D01*
X014948Y003462D02*
X014948Y003913D01*
X014798Y003763D01*
X014638Y003913D02*
X014337Y003462D01*
X014638Y003462D02*
X014337Y003913D01*
X013285Y001788D02*
X013360Y001713D01*
X013060Y001412D01*
X013135Y001337D01*
X013285Y001337D01*
X013360Y001412D01*
X013360Y001713D01*
X013285Y001788D02*
X013135Y001788D01*
X013060Y001713D01*
X013060Y001412D01*
X012900Y001412D02*
X012900Y001488D01*
X012825Y001563D01*
X012600Y001563D01*
X012600Y001412D01*
X012675Y001337D01*
X012825Y001337D01*
X012900Y001412D01*
X012600Y001563D02*
X012750Y001713D01*
X012900Y001788D01*
X012440Y001788D02*
X012289Y001788D01*
X012365Y001788D02*
X012365Y001412D01*
X012289Y001337D01*
X012214Y001337D01*
X012139Y001412D01*
X011979Y001412D02*
X011979Y001488D01*
X011904Y001563D01*
X011754Y001563D01*
X011679Y001638D01*
X011679Y001713D01*
X011754Y001788D01*
X011904Y001788D01*
X011979Y001713D01*
X011979Y001638D01*
X011904Y001563D01*
X011754Y001563D02*
X011679Y001488D01*
X011679Y001412D01*
X011754Y001337D01*
X011904Y001337D01*
X011979Y001412D01*
X011519Y001337D02*
X011219Y001337D01*
X011519Y001638D01*
X011519Y001713D01*
X011444Y001788D01*
X011294Y001788D01*
X011219Y001713D01*
X011058Y001713D02*
X010983Y001788D01*
X010833Y001788D01*
X010758Y001713D01*
X010758Y001412D01*
X010833Y001337D01*
X010983Y001337D01*
X011058Y001412D01*
X010598Y001337D02*
X010598Y001788D01*
X010298Y001788D02*
X010298Y001337D01*
X010138Y001337D02*
X009837Y001337D01*
X009837Y001788D01*
X010138Y001788D01*
X010298Y001788D02*
X010598Y001337D01*
X009988Y001563D02*
X009837Y001563D01*
X008888Y003212D02*
X008587Y003212D01*
X008738Y003212D02*
X008738Y003663D01*
X008587Y003513D01*
X008193Y004337D02*
X007893Y004337D01*
X008193Y004638D01*
X008193Y004713D01*
X008118Y004788D01*
X007968Y004788D01*
X007893Y004713D01*
X007733Y004788D02*
X007432Y004337D01*
X007733Y004337D02*
X007432Y004788D01*
X006717Y002163D02*
X006492Y001938D01*
X006792Y001938D01*
X006717Y002163D02*
X006717Y001712D01*
X006332Y001787D02*
X006256Y001712D01*
X006106Y001712D01*
X006031Y001787D01*
X006031Y002088D01*
X006106Y002163D01*
X006256Y002163D01*
X006332Y002088D01*
X011712Y012587D02*
X011863Y012587D01*
X011787Y012587D02*
X011787Y013038D01*
X011712Y013038D02*
X011863Y013038D01*
X012019Y012963D02*
X012019Y012662D01*
X012094Y012587D01*
X012245Y012587D01*
X012320Y012662D01*
X012480Y012587D02*
X012780Y012587D01*
X012630Y012587D02*
X012630Y013038D01*
X012480Y012888D01*
X012320Y012963D02*
X012245Y013038D01*
X012094Y013038D01*
X012019Y012963D01*
X014589Y014037D02*
X014664Y013962D01*
X014814Y013962D01*
X014889Y014037D01*
X014889Y014113D01*
X014814Y014188D01*
X014664Y014188D01*
X014589Y014263D01*
X014589Y014338D01*
X014664Y014413D01*
X014814Y014413D01*
X014889Y014338D01*
X015049Y014413D02*
X015349Y013962D01*
X015349Y014413D01*
X015509Y014413D02*
X015509Y013962D01*
X015810Y013962D01*
X015970Y014037D02*
X016045Y013962D01*
X016195Y013962D01*
X016270Y014037D01*
X016270Y014113D01*
X016195Y014188D01*
X016045Y014188D01*
X015970Y014263D01*
X015970Y014338D01*
X016045Y014413D01*
X016195Y014413D01*
X016270Y014338D01*
X015810Y014413D02*
X015509Y014413D01*
X015509Y014188D02*
X015660Y014188D01*
X015049Y013962D02*
X015049Y014413D01*
X016891Y014263D02*
X016891Y013812D01*
X016891Y013962D02*
X017116Y013962D01*
X017191Y014037D01*
X017191Y014188D01*
X017116Y014263D01*
X016891Y014263D01*
X017351Y014188D02*
X017351Y014037D01*
X017426Y013962D01*
X017576Y013962D01*
X017651Y014037D01*
X017651Y014188D01*
X017576Y014263D01*
X017426Y014263D01*
X017351Y014188D01*
X017811Y014263D02*
X017811Y013962D01*
X017811Y014113D02*
X017962Y014263D01*
X018037Y014263D01*
X018195Y014263D02*
X018345Y014263D01*
X018270Y014338D02*
X018270Y014037D01*
X018345Y013962D01*
X018502Y014037D02*
X018802Y014338D01*
X018802Y014037D01*
X018727Y013962D01*
X018577Y013962D01*
X018502Y014037D01*
X018502Y014338D01*
X018577Y014413D01*
X018727Y014413D01*
X018802Y014338D01*
X018962Y015587D02*
X019263Y015587D01*
X019113Y015587D02*
X019113Y016038D01*
X018962Y015888D01*
X014582Y016537D02*
X014507Y016462D01*
X014357Y016462D01*
X014282Y016537D01*
X014122Y016462D02*
X013822Y016913D01*
X014122Y016913D02*
X013822Y016462D01*
X014282Y016838D02*
X014357Y016913D01*
X014507Y016913D01*
X014582Y016838D01*
X014582Y016763D01*
X014507Y016688D01*
X014582Y016613D01*
X014582Y016537D01*
X014507Y016688D02*
X014432Y016688D01*
X014306Y017587D02*
X014231Y017662D01*
X014231Y017963D01*
X014155Y017888D02*
X014306Y017888D01*
X013995Y017813D02*
X013995Y017738D01*
X013695Y017738D01*
X013695Y017813D02*
X013770Y017888D01*
X013920Y017888D01*
X013995Y017813D01*
X013920Y017587D02*
X013770Y017587D01*
X013695Y017662D01*
X013695Y017813D01*
X013535Y017888D02*
X013310Y017888D01*
X013235Y017813D01*
X013310Y017738D01*
X013460Y017738D01*
X013535Y017662D01*
X013460Y017587D01*
X013235Y017587D01*
X013075Y017738D02*
X012774Y017738D01*
X012774Y017813D02*
X012849Y017888D01*
X012999Y017888D01*
X013075Y017813D01*
X013075Y017738D01*
X012999Y017587D02*
X012849Y017587D01*
X012774Y017662D01*
X012774Y017813D01*
X012614Y017813D02*
X012614Y017963D01*
X012539Y018038D01*
X012314Y018038D01*
X012314Y017587D01*
X012314Y017738D02*
X012539Y017738D01*
X012614Y017813D01*
X012464Y017738D02*
X012614Y017587D01*
X011552Y017662D02*
X011477Y017587D01*
X011327Y017587D01*
X011252Y017662D01*
X011252Y017963D01*
X011327Y018038D01*
X011477Y018038D01*
X011552Y017963D01*
X011552Y017813D02*
X011402Y017813D01*
X011552Y017813D02*
X011552Y017662D01*
X011092Y017662D02*
X011017Y017587D01*
X010867Y017587D01*
X010792Y017662D01*
X010792Y018038D01*
X010631Y017963D02*
X010631Y017888D01*
X010556Y017813D01*
X010331Y017813D01*
X010331Y018038D02*
X010331Y017587D01*
X010556Y017587D01*
X010631Y017662D01*
X010631Y017738D01*
X010556Y017813D01*
X010631Y017963D02*
X010556Y018038D01*
X010331Y018038D01*
X010171Y018038D02*
X009871Y018038D01*
X009871Y017587D01*
X010171Y017587D01*
X010021Y017813D02*
X009871Y017813D01*
X009711Y017963D02*
X009636Y018038D01*
X009410Y018038D01*
X009410Y017587D01*
X009636Y017587D01*
X009711Y017662D01*
X009711Y017963D01*
X010792Y018242D02*
X011092Y018693D01*
X011252Y018693D02*
X011552Y018693D01*
X011552Y018618D01*
X011252Y018317D01*
X011252Y018242D01*
X011092Y018242D02*
X010792Y018693D01*
X011092Y018038D02*
X011092Y017662D01*
X013542Y018242D02*
X013842Y018693D01*
X014002Y018693D02*
X014002Y018468D01*
X014152Y018543D01*
X014227Y018543D01*
X014302Y018468D01*
X014302Y018317D01*
X014227Y018242D01*
X014077Y018242D01*
X014002Y018317D01*
X013842Y018242D02*
X013542Y018693D01*
X014002Y018693D02*
X014302Y018693D01*
D12*
X013187Y017437D02*
X012687Y017437D01*
X012437Y017187D01*
X012187Y017437D01*
X012437Y017187D02*
X012437Y016687D01*
X012187Y016437D01*
X011687Y016437D01*
X011437Y016687D01*
X011437Y017187D01*
X011687Y017437D01*
X012437Y016687D02*
X012687Y016437D01*
X013187Y016437D02*
X013437Y016687D01*
X013437Y017187D01*
X013187Y017437D01*
X013937Y016312D02*
X014437Y016312D01*
X014687Y016062D01*
X014687Y015562D01*
X014437Y015312D01*
X014687Y015562D02*
X014937Y015312D01*
X015437Y015312D01*
X015687Y015562D01*
X015687Y016062D01*
X015437Y016312D01*
X015687Y016062D02*
X015937Y016312D01*
X016437Y016312D01*
X016687Y016062D01*
X016937Y016312D01*
X016687Y016062D02*
X016687Y015562D01*
X016437Y015312D01*
X016687Y015562D02*
X016937Y015312D01*
X017437Y015312D01*
X017687Y015562D01*
X017687Y016062D01*
X017437Y016312D01*
X017687Y016062D02*
X017937Y016312D01*
X018437Y016312D01*
X018687Y016062D01*
X018687Y015562D01*
X018437Y015312D01*
X017937Y015312D02*
X017687Y015562D01*
X015937Y015312D02*
X015687Y015562D01*
X014937Y016312D02*
X014687Y016062D01*
X013937Y016312D02*
X013687Y016062D01*
X013687Y015562D01*
X013937Y015312D01*
X013067Y013192D02*
X010447Y013192D01*
X010307Y013053D01*
X010307Y010432D01*
X013067Y010432D01*
X013067Y013192D01*
X010466Y012892D02*
X010468Y012915D01*
X010474Y012938D01*
X010483Y012959D01*
X010496Y012979D01*
X010512Y012996D01*
X010530Y013010D01*
X010550Y013021D01*
X010572Y013029D01*
X010595Y013033D01*
X010619Y013033D01*
X010642Y013029D01*
X010664Y013021D01*
X010684Y013010D01*
X010702Y012996D01*
X010718Y012979D01*
X010731Y012959D01*
X010740Y012938D01*
X010746Y012915D01*
X010748Y012892D01*
X010746Y012869D01*
X010740Y012846D01*
X010731Y012825D01*
X010718Y012805D01*
X010702Y012788D01*
X010684Y012774D01*
X010664Y012763D01*
X010642Y012755D01*
X010619Y012751D01*
X010595Y012751D01*
X010572Y012755D01*
X010550Y012763D01*
X010530Y012774D01*
X010512Y012788D01*
X010496Y012805D01*
X010483Y012825D01*
X010474Y012846D01*
X010468Y012869D01*
X010466Y012892D01*
X008062Y015312D02*
X008312Y015562D01*
X008312Y016062D01*
X008062Y016312D01*
X007562Y016312D02*
X007312Y016062D01*
X007062Y016312D01*
X006562Y016312D01*
X006312Y016062D01*
X006312Y015562D01*
X006562Y015312D01*
X006312Y015562D02*
X006062Y015312D01*
X005562Y015312D01*
X005312Y015562D01*
X005062Y015312D01*
X005312Y015562D02*
X005312Y016062D01*
X005562Y016312D01*
X005312Y016062D02*
X005062Y016312D01*
X004562Y016312D01*
X004312Y016062D01*
X004312Y015562D01*
X004562Y015312D01*
X004312Y015562D02*
X004062Y015312D01*
X003562Y015312D01*
X003312Y015562D01*
X003312Y016062D01*
X003562Y016312D01*
X004062Y016312D02*
X004312Y016062D01*
X006062Y016312D02*
X006312Y016062D01*
X007062Y015312D02*
X007312Y015562D01*
X007562Y015312D01*
X008062Y015312D01*
X007312Y015562D02*
X007312Y016062D01*
X008562Y016687D02*
X008562Y017187D01*
X008812Y017437D01*
X009312Y017437D02*
X009562Y017187D01*
X009812Y017437D01*
X010312Y017437D01*
X010562Y017187D01*
X010562Y016687D01*
X010312Y016437D01*
X009812Y016437D02*
X009562Y016687D01*
X009312Y016437D01*
X008812Y016437D01*
X008562Y016687D01*
X009562Y016687D02*
X009562Y017187D01*
X007162Y012562D02*
X006762Y012562D01*
X007162Y012562D02*
X007179Y012560D01*
X007196Y012556D01*
X007212Y012549D01*
X007226Y012539D01*
X007239Y012526D01*
X007249Y012512D01*
X007256Y012496D01*
X007260Y012479D01*
X007262Y012462D01*
X007262Y008162D01*
X007260Y008145D01*
X007256Y008128D01*
X007249Y008112D01*
X007239Y008098D01*
X007226Y008085D01*
X007212Y008075D01*
X007196Y008068D01*
X007179Y008064D01*
X007162Y008062D01*
X006762Y008062D01*
X005862Y008062D02*
X005462Y008062D01*
X005445Y008064D01*
X005428Y008068D01*
X005412Y008075D01*
X005398Y008085D01*
X005385Y008098D01*
X005375Y008112D01*
X005368Y008128D01*
X005364Y008145D01*
X005362Y008162D01*
X005362Y012462D01*
X005364Y012479D01*
X005368Y012496D01*
X005375Y012512D01*
X005385Y012526D01*
X005398Y012539D01*
X005412Y012549D01*
X005428Y012556D01*
X005445Y012560D01*
X005462Y012562D01*
X005862Y012562D01*
X006062Y010562D02*
X006312Y010562D01*
X006562Y010562D01*
X006562Y010412D02*
X006062Y010412D01*
X006062Y010212D01*
X006562Y010212D01*
X006562Y010412D01*
X006562Y010062D02*
X006312Y010062D01*
X006062Y010062D01*
X006062Y005937D02*
X006312Y005687D01*
X006562Y005937D01*
X007062Y005937D01*
X007312Y005687D01*
X007562Y005937D01*
X007312Y005687D02*
X007312Y005187D01*
X007562Y004937D01*
X008062Y004937D01*
X008312Y005187D01*
X008312Y005687D01*
X008062Y005937D01*
X007312Y005187D02*
X007062Y004937D01*
X006562Y004937D02*
X006312Y005187D01*
X006312Y005687D01*
X006312Y005187D02*
X006062Y004937D01*
X005562Y004937D01*
X005312Y005187D01*
X005062Y004937D01*
X005312Y005187D02*
X005312Y005687D01*
X005562Y005937D01*
X005312Y005687D02*
X005062Y005937D01*
X004562Y005937D01*
X004312Y005687D01*
X004312Y005187D01*
X004562Y004937D01*
X004312Y005187D02*
X004062Y004937D01*
X003562Y004937D01*
X003312Y005187D01*
X003312Y005687D01*
X003562Y005937D01*
X004062Y005937D02*
X004312Y005687D01*
X009062Y004687D02*
X009062Y004187D01*
X009312Y003937D01*
X009062Y003687D01*
X009062Y003187D01*
X009312Y002937D01*
X009812Y002937D02*
X010062Y003187D01*
X010312Y002937D01*
X010062Y003187D02*
X010062Y003687D01*
X010312Y003937D01*
X010062Y004187D01*
X009812Y003937D01*
X010062Y003687D01*
X009812Y003937D02*
X009312Y003937D01*
X009062Y004687D02*
X009312Y004937D01*
X009812Y004937D02*
X010062Y004687D01*
X010312Y004937D01*
X010062Y004687D02*
X010062Y004187D01*
X010312Y003937D02*
X010812Y003937D01*
X011062Y003687D01*
X011312Y003937D01*
X011812Y003937D01*
X012062Y003687D01*
X012312Y003937D01*
X012062Y004187D01*
X011812Y003937D01*
X012062Y003687D02*
X012062Y003187D01*
X012312Y002937D01*
X012062Y003187D02*
X011812Y002937D01*
X011312Y002937D02*
X011062Y003187D01*
X010812Y002937D01*
X011062Y003187D02*
X011062Y003687D01*
X010812Y003937D02*
X011062Y004187D01*
X011312Y003937D01*
X011062Y004187D02*
X011062Y004687D01*
X011312Y004937D01*
X011062Y004687D02*
X010812Y004937D01*
X011812Y004937D02*
X012062Y004687D01*
X012312Y004937D01*
X012062Y004687D02*
X012062Y004187D01*
X012312Y003937D02*
X012812Y003937D01*
X013062Y004187D01*
X013312Y003937D01*
X013062Y003687D01*
X012812Y003937D01*
X013062Y003687D02*
X013062Y003187D01*
X013312Y002937D01*
X013062Y003187D02*
X012812Y002937D01*
X013312Y003937D02*
X013812Y003937D01*
X014062Y003687D01*
X014062Y003187D01*
X013812Y002937D01*
X013812Y003937D02*
X014062Y004187D01*
X014062Y004687D01*
X013812Y004937D01*
X013312Y004937D02*
X013062Y004687D01*
X012812Y004937D01*
X013062Y004687D02*
X013062Y004187D01*
X012437Y007187D02*
X012687Y007437D01*
X012687Y007937D01*
X012437Y008187D01*
X011937Y008187D01*
X011687Y007937D01*
X011687Y007437D01*
X011937Y007187D01*
X011687Y007437D02*
X011437Y007187D01*
X010937Y007187D01*
X010687Y007437D01*
X010687Y007937D01*
X010937Y008187D01*
X011437Y008187D02*
X011687Y007937D01*
X014312Y008062D02*
X014562Y007812D01*
X015062Y007812D01*
X015312Y008062D01*
X015562Y007812D01*
X015312Y008062D02*
X015312Y008562D01*
X015562Y008812D01*
X016062Y008812D01*
X016312Y008562D01*
X016312Y008062D01*
X016062Y007812D01*
X015312Y008562D02*
X015062Y008812D01*
X014562Y008812D02*
X014312Y008562D01*
X014312Y008062D01*
D13*
X015647Y005012D02*
X018228Y005012D01*
X018228Y003612D01*
X015647Y003612D01*
X015647Y005012D01*
M02*
